ISO-10303-21;
HEADER;
FILE_DESCRIPTION(('FreeCAD Model'),'2;1');
FILE_NAME('Open CASCADE Shape Model','2026-08-18T02:27:16',('FreeCAD'),(
    'FreeCAD'),'Open CASCADE STEP processor 7.9','FreeCAD','Unknown');
FILE_SCHEMA(('AUTOMOTIVE_DESIGN { 1 0 10303 214 1 1 1 1 }'));
ENDSEC;
DATA;
#1 = APPLICATION_PROTOCOL_DEFINITION('international standard',
  'automotive_design',2000,#2);
#2 = APPLICATION_CONTEXT(
  'core data for automotive mechanical design processes');
#3 = SHAPE_DEFINITION_REPRESENTATION(#4,#10);
#4 = PRODUCT_DEFINITION_SHAPE('','',#5);
#5 = PRODUCT_DEFINITION('design','',#6,#9);
#6 = PRODUCT_DEFINITION_FORMATION('','',#7);
#7 = PRODUCT('Open CASCADE STEP translator 7.9 17',
  'Open CASCADE STEP translator 7.9 17','',(#8));
#8 = PRODUCT_CONTEXT('',#2,'mechanical');
#9 = PRODUCT_DEFINITION_CONTEXT('part definition',#2,'design');
#10 = SHAPE_REPRESENTATION('',(#11,#15,#68,#121,#271,#324,#474,#566,#660
    ,#752,#844,#938,#1030,#1124,#1216,#1310),#1402);
#11 = AXIS2_PLACEMENT_3D('',#12,#13,#14);
#12 = CARTESIAN_POINT('',(0.,0.,0.));
#13 = DIRECTION('',(0.,0.,1.));
#14 = DIRECTION('',(1.,0.,-0.));
#15 = MANIFOLD_SOLID_BREP('',#16);
#16 = CLOSED_SHELL('',(#17,#50,#59));
#17 = ADVANCED_FACE('',(#18),#45,.T.);
#18 = FACE_BOUND('',#19,.F.);
#19 = EDGE_LOOP('',(#20,#30,#37,#38));
#20 = ORIENTED_EDGE('',*,*,#21,.T.);
#21 = EDGE_CURVE('',#22,#24,#26,.T.);
#22 = VERTEX_POINT('',#23);
#23 = CARTESIAN_POINT('',(300.,-7.347880794884E-14,0.));
#24 = VERTEX_POINT('',#25);
#25 = CARTESIAN_POINT('',(300.,-7.347880794884E-14,800.));
#26 = LINE('',#27,#28);
#27 = CARTESIAN_POINT('',(300.,-7.347880794884E-14,0.));
#28 = VECTOR('',#29,1.);
#29 = DIRECTION('',(0.,0.,1.));
#30 = ORIENTED_EDGE('',*,*,#31,.T.);
#31 = EDGE_CURVE('',#24,#24,#32,.T.);
#32 = CIRCLE('',#33,300.);
#33 = AXIS2_PLACEMENT_3D('',#34,#35,#36);
#34 = CARTESIAN_POINT('',(0.,0.,800.));
#35 = DIRECTION('',(0.,0.,1.));
#36 = DIRECTION('',(1.,0.,0.));
#37 = ORIENTED_EDGE('',*,*,#21,.F.);
#38 = ORIENTED_EDGE('',*,*,#39,.F.);
#39 = EDGE_CURVE('',#22,#22,#40,.T.);
#40 = CIRCLE('',#41,300.);
#41 = AXIS2_PLACEMENT_3D('',#42,#43,#44);
#42 = CARTESIAN_POINT('',(0.,0.,0.));
#43 = DIRECTION('',(0.,0.,1.));
#44 = DIRECTION('',(1.,0.,0.));
#45 = CYLINDRICAL_SURFACE('',#46,300.);
#46 = AXIS2_PLACEMENT_3D('',#47,#48,#49);
#47 = CARTESIAN_POINT('',(0.,0.,0.));
#48 = DIRECTION('',(-0.,-0.,-1.));
#49 = DIRECTION('',(1.,0.,0.));
#50 = ADVANCED_FACE('',(#51),#54,.F.);
#51 = FACE_BOUND('',#52,.T.);
#52 = EDGE_LOOP('',(#53));
#53 = ORIENTED_EDGE('',*,*,#39,.F.);
#54 = PLANE('',#55);
#55 = AXIS2_PLACEMENT_3D('',#56,#57,#58);
#56 = CARTESIAN_POINT('',(0.,0.,0.));
#57 = DIRECTION('',(0.,0.,1.));
#58 = DIRECTION('',(1.,0.,0.));
#59 = ADVANCED_FACE('',(#60),#63,.T.);
#60 = FACE_BOUND('',#61,.F.);
#61 = EDGE_LOOP('',(#62));
#62 = ORIENTED_EDGE('',*,*,#31,.F.);
#63 = PLANE('',#64);
#64 = AXIS2_PLACEMENT_3D('',#65,#66,#67);
#65 = CARTESIAN_POINT('',(0.,0.,800.));
#66 = DIRECTION('',(0.,0.,1.));
#67 = DIRECTION('',(1.,0.,0.));
#68 = MANIFOLD_SOLID_BREP('',#69);
#69 = CLOSED_SHELL('',(#70,#103,#112));
#70 = ADVANCED_FACE('',(#71),#98,.T.);
#71 = FACE_BOUND('',#72,.F.);
#72 = EDGE_LOOP('',(#73,#83,#90,#91));
#73 = ORIENTED_EDGE('',*,*,#74,.T.);
#74 = EDGE_CURVE('',#75,#77,#79,.T.);
#75 = VERTEX_POINT('',#76);
#76 = CARTESIAN_POINT('',(200.,-4.898587196589E-14,800.));
#77 = VERTEX_POINT('',#78);
#78 = CARTESIAN_POINT('',(200.,-4.898587196589E-14,1.2E+03));
#79 = LINE('',#80,#81);
#80 = CARTESIAN_POINT('',(200.,-4.898587196589E-14,800.));
#81 = VECTOR('',#82,1.);
#82 = DIRECTION('',(0.,0.,1.));
#83 = ORIENTED_EDGE('',*,*,#84,.T.);
#84 = EDGE_CURVE('',#77,#77,#85,.T.);
#85 = CIRCLE('',#86,200.);
#86 = AXIS2_PLACEMENT_3D('',#87,#88,#89);
#87 = CARTESIAN_POINT('',(0.,0.,1.2E+03));
#88 = DIRECTION('',(0.,0.,1.));
#89 = DIRECTION('',(1.,0.,0.));
#90 = ORIENTED_EDGE('',*,*,#74,.F.);
#91 = ORIENTED_EDGE('',*,*,#92,.F.);
#92 = EDGE_CURVE('',#75,#75,#93,.T.);
#93 = CIRCLE('',#94,200.);
#94 = AXIS2_PLACEMENT_3D('',#95,#96,#97);
#95 = CARTESIAN_POINT('',(0.,0.,800.));
#96 = DIRECTION('',(0.,0.,1.));
#97 = DIRECTION('',(1.,0.,0.));
#98 = CYLINDRICAL_SURFACE('',#99,200.);
#99 = AXIS2_PLACEMENT_3D('',#100,#101,#102);
#100 = CARTESIAN_POINT('',(0.,0.,800.));
#101 = DIRECTION('',(-0.,-0.,-1.));
#102 = DIRECTION('',(1.,0.,0.));
#103 = ADVANCED_FACE('',(#104),#107,.F.);
#104 = FACE_BOUND('',#105,.T.);
#105 = EDGE_LOOP('',(#106));
#106 = ORIENTED_EDGE('',*,*,#92,.F.);
#107 = PLANE('',#108);
#108 = AXIS2_PLACEMENT_3D('',#109,#110,#111);
#109 = CARTESIAN_POINT('',(0.,0.,800.));
#110 = DIRECTION('',(0.,0.,1.));
#111 = DIRECTION('',(1.,0.,0.));
#112 = ADVANCED_FACE('',(#113),#116,.T.);
#113 = FACE_BOUND('',#114,.F.);
#114 = EDGE_LOOP('',(#115));
#115 = ORIENTED_EDGE('',*,*,#84,.F.);
#116 = PLANE('',#117);
#117 = AXIS2_PLACEMENT_3D('',#118,#119,#120);
#118 = CARTESIAN_POINT('',(0.,0.,1.2E+03));
#119 = DIRECTION('',(0.,0.,1.));
#120 = DIRECTION('',(1.,0.,0.));
#121 = MANIFOLD_SOLID_BREP('',#122);
#122 = CLOSED_SHELL('',(#123,#163,#203,#225,#247,#259));
#123 = ADVANCED_FACE('',(#124),#158,.F.);
#124 = FACE_BOUND('',#125,.F.);
#125 = EDGE_LOOP('',(#126,#136,#144,#152));
#126 = ORIENTED_EDGE('',*,*,#127,.F.);
#127 = EDGE_CURVE('',#128,#130,#132,.T.);
#128 = VERTEX_POINT('',#129);
#129 = CARTESIAN_POINT('',(5.E+03,-800.,200.));
#130 = VERTEX_POINT('',#131);
#131 = CARTESIAN_POINT('',(5.E+03,-800.,1.4E+03));
#132 = LINE('',#133,#134);
#133 = CARTESIAN_POINT('',(5.E+03,-800.,200.));
#134 = VECTOR('',#135,1.);
#135 = DIRECTION('',(0.,0.,1.));
#136 = ORIENTED_EDGE('',*,*,#137,.T.);
#137 = EDGE_CURVE('',#128,#138,#140,.T.);
#138 = VERTEX_POINT('',#139);
#139 = CARTESIAN_POINT('',(5.E+03,800.,200.));
#140 = LINE('',#141,#142);
#141 = CARTESIAN_POINT('',(5.E+03,-800.,200.));
#142 = VECTOR('',#143,1.);
#143 = DIRECTION('',(0.,1.,0.));
#144 = ORIENTED_EDGE('',*,*,#145,.T.);
#145 = EDGE_CURVE('',#138,#146,#148,.T.);
#146 = VERTEX_POINT('',#147);
#147 = CARTESIAN_POINT('',(5.E+03,800.,1.4E+03));
#148 = LINE('',#149,#150);
#149 = CARTESIAN_POINT('',(5.E+03,800.,200.));
#150 = VECTOR('',#151,1.);
#151 = DIRECTION('',(0.,0.,1.));
#152 = ORIENTED_EDGE('',*,*,#153,.F.);
#153 = EDGE_CURVE('',#130,#146,#154,.T.);
#154 = LINE('',#155,#156);
#155 = CARTESIAN_POINT('',(5.E+03,-800.,1.4E+03));
#156 = VECTOR('',#157,1.);
#157 = DIRECTION('',(0.,1.,0.));
#158 = PLANE('',#159);
#159 = AXIS2_PLACEMENT_3D('',#160,#161,#162);
#160 = CARTESIAN_POINT('',(5.E+03,-800.,200.));
#161 = DIRECTION('',(1.,0.,0.));
#162 = DIRECTION('',(0.,0.,1.));
#163 = ADVANCED_FACE('',(#164),#198,.T.);
#164 = FACE_BOUND('',#165,.T.);
#165 = EDGE_LOOP('',(#166,#176,#184,#192));
#166 = ORIENTED_EDGE('',*,*,#167,.F.);
#167 = EDGE_CURVE('',#168,#170,#172,.T.);
#168 = VERTEX_POINT('',#169);
#169 = CARTESIAN_POINT('',(5.8E+03,-800.,200.));
#170 = VERTEX_POINT('',#171);
#171 = CARTESIAN_POINT('',(5.8E+03,-800.,1.4E+03));
#172 = LINE('',#173,#174);
#173 = CARTESIAN_POINT('',(5.8E+03,-800.,200.));
#174 = VECTOR('',#175,1.);
#175 = DIRECTION('',(0.,0.,1.));
#176 = ORIENTED_EDGE('',*,*,#177,.T.);
#177 = EDGE_CURVE('',#168,#178,#180,.T.);
#178 = VERTEX_POINT('',#179);
#179 = CARTESIAN_POINT('',(5.8E+03,800.,200.));
#180 = LINE('',#181,#182);
#181 = CARTESIAN_POINT('',(5.8E+03,-800.,200.));
#182 = VECTOR('',#183,1.);
#183 = DIRECTION('',(0.,1.,0.));
#184 = ORIENTED_EDGE('',*,*,#185,.T.);
#185 = EDGE_CURVE('',#178,#186,#188,.T.);
#186 = VERTEX_POINT('',#187);
#187 = CARTESIAN_POINT('',(5.8E+03,800.,1.4E+03));
#188 = LINE('',#189,#190);
#189 = CARTESIAN_POINT('',(5.8E+03,800.,200.));
#190 = VECTOR('',#191,1.);
#191 = DIRECTION('',(0.,0.,1.));
#192 = ORIENTED_EDGE('',*,*,#193,.F.);
#193 = EDGE_CURVE('',#170,#186,#194,.T.);
#194 = LINE('',#195,#196);
#195 = CARTESIAN_POINT('',(5.8E+03,-800.,1.4E+03));
#196 = VECTOR('',#197,1.);
#197 = DIRECTION('',(0.,1.,0.));
#198 = PLANE('',#199);
#199 = AXIS2_PLACEMENT_3D('',#200,#201,#202);
#200 = CARTESIAN_POINT('',(5.8E+03,-800.,200.));
#201 = DIRECTION('',(1.,0.,0.));
#202 = DIRECTION('',(0.,0.,1.));
#203 = ADVANCED_FACE('',(#204),#220,.F.);
#204 = FACE_BOUND('',#205,.F.);
#205 = EDGE_LOOP('',(#206,#212,#213,#219));
#206 = ORIENTED_EDGE('',*,*,#207,.F.);
#207 = EDGE_CURVE('',#128,#168,#208,.T.);
#208 = LINE('',#209,#210);
#209 = CARTESIAN_POINT('',(5.E+03,-800.,200.));
#210 = VECTOR('',#211,1.);
#211 = DIRECTION('',(1.,0.,0.));
#212 = ORIENTED_EDGE('',*,*,#127,.T.);
#213 = ORIENTED_EDGE('',*,*,#214,.T.);
#214 = EDGE_CURVE('',#130,#170,#215,.T.);
#215 = LINE('',#216,#217);
#216 = CARTESIAN_POINT('',(5.E+03,-800.,1.4E+03));
#217 = VECTOR('',#218,1.);
#218 = DIRECTION('',(1.,0.,0.));
#219 = ORIENTED_EDGE('',*,*,#167,.F.);
#220 = PLANE('',#221);
#221 = AXIS2_PLACEMENT_3D('',#222,#223,#224);
#222 = CARTESIAN_POINT('',(5.E+03,-800.,200.));
#223 = DIRECTION('',(0.,1.,0.));
#224 = DIRECTION('',(0.,0.,1.));
#225 = ADVANCED_FACE('',(#226),#242,.T.);
#226 = FACE_BOUND('',#227,.T.);
#227 = EDGE_LOOP('',(#228,#234,#235,#241));
#228 = ORIENTED_EDGE('',*,*,#229,.F.);
#229 = EDGE_CURVE('',#138,#178,#230,.T.);
#230 = LINE('',#231,#232);
#231 = CARTESIAN_POINT('',(5.E+03,800.,200.));
#232 = VECTOR('',#233,1.);
#233 = DIRECTION('',(1.,0.,0.));
#234 = ORIENTED_EDGE('',*,*,#145,.T.);
#235 = ORIENTED_EDGE('',*,*,#236,.T.);
#236 = EDGE_CURVE('',#146,#186,#237,.T.);
#237 = LINE('',#238,#239);
#238 = CARTESIAN_POINT('',(5.E+03,800.,1.4E+03));
#239 = VECTOR('',#240,1.);
#240 = DIRECTION('',(1.,0.,0.));
#241 = ORIENTED_EDGE('',*,*,#185,.F.);
#242 = PLANE('',#243);
#243 = AXIS2_PLACEMENT_3D('',#244,#245,#246);
#244 = CARTESIAN_POINT('',(5.E+03,800.,200.));
#245 = DIRECTION('',(0.,1.,0.));
#246 = DIRECTION('',(0.,0.,1.));
#247 = ADVANCED_FACE('',(#248),#254,.F.);
#248 = FACE_BOUND('',#249,.F.);
#249 = EDGE_LOOP('',(#250,#251,#252,#253));
#250 = ORIENTED_EDGE('',*,*,#137,.F.);
#251 = ORIENTED_EDGE('',*,*,#207,.T.);
#252 = ORIENTED_EDGE('',*,*,#177,.T.);
#253 = ORIENTED_EDGE('',*,*,#229,.F.);
#254 = PLANE('',#255);
#255 = AXIS2_PLACEMENT_3D('',#256,#257,#258);
#256 = CARTESIAN_POINT('',(5.E+03,-800.,200.));
#257 = DIRECTION('',(0.,0.,1.));
#258 = DIRECTION('',(1.,0.,0.));
#259 = ADVANCED_FACE('',(#260),#266,.T.);
#260 = FACE_BOUND('',#261,.T.);
#261 = EDGE_LOOP('',(#262,#263,#264,#265));
#262 = ORIENTED_EDGE('',*,*,#153,.F.);
#263 = ORIENTED_EDGE('',*,*,#214,.T.);
#264 = ORIENTED_EDGE('',*,*,#193,.T.);
#265 = ORIENTED_EDGE('',*,*,#236,.F.);
#266 = PLANE('',#267);
#267 = AXIS2_PLACEMENT_3D('',#268,#269,#270);
#268 = CARTESIAN_POINT('',(5.E+03,-800.,1.4E+03));
#269 = DIRECTION('',(0.,0.,1.));
#270 = DIRECTION('',(1.,0.,0.));
#271 = MANIFOLD_SOLID_BREP('',#272);
#272 = CLOSED_SHELL('',(#273,#306,#315));
#273 = ADVANCED_FACE('',(#274),#301,.T.);
#274 = FACE_BOUND('',#275,.F.);
#275 = EDGE_LOOP('',(#276,#286,#293,#294));
#276 = ORIENTED_EDGE('',*,*,#277,.T.);
#277 = EDGE_CURVE('',#278,#280,#282,.T.);
#278 = VERTEX_POINT('',#279);
#279 = CARTESIAN_POINT('',(5.9E+03,-1.224646799147E-13,1.4E+03));
#280 = VERTEX_POINT('',#281);
#281 = CARTESIAN_POINT('',(5.9E+03,-1.224646799147E-13,1.5E+03));
#282 = LINE('',#283,#284);
#283 = CARTESIAN_POINT('',(5.9E+03,-1.224646799147E-13,1.4E+03));
#284 = VECTOR('',#285,1.);
#285 = DIRECTION('',(0.,0.,1.));
#286 = ORIENTED_EDGE('',*,*,#287,.T.);
#287 = EDGE_CURVE('',#280,#280,#288,.T.);
#288 = CIRCLE('',#289,500.);
#289 = AXIS2_PLACEMENT_3D('',#290,#291,#292);
#290 = CARTESIAN_POINT('',(5.4E+03,0.,1.5E+03));
#291 = DIRECTION('',(0.,0.,1.));
#292 = DIRECTION('',(1.,0.,0.));
#293 = ORIENTED_EDGE('',*,*,#277,.F.);
#294 = ORIENTED_EDGE('',*,*,#295,.F.);
#295 = EDGE_CURVE('',#278,#278,#296,.T.);
#296 = CIRCLE('',#297,500.);
#297 = AXIS2_PLACEMENT_3D('',#298,#299,#300);
#298 = CARTESIAN_POINT('',(5.4E+03,0.,1.4E+03));
#299 = DIRECTION('',(0.,0.,1.));
#300 = DIRECTION('',(1.,0.,0.));
#301 = CYLINDRICAL_SURFACE('',#302,500.);
#302 = AXIS2_PLACEMENT_3D('',#303,#304,#305);
#303 = CARTESIAN_POINT('',(5.4E+03,0.,1.4E+03));
#304 = DIRECTION('',(-0.,-0.,-1.));
#305 = DIRECTION('',(1.,0.,0.));
#306 = ADVANCED_FACE('',(#307),#310,.F.);
#307 = FACE_BOUND('',#308,.T.);
#308 = EDGE_LOOP('',(#309));
#309 = ORIENTED_EDGE('',*,*,#295,.F.);
#310 = PLANE('',#311);
#311 = AXIS2_PLACEMENT_3D('',#312,#313,#314);
#312 = CARTESIAN_POINT('',(5.4E+03,0.,1.4E+03));
#313 = DIRECTION('',(0.,0.,1.));
#314 = DIRECTION('',(1.,0.,0.));
#315 = ADVANCED_FACE('',(#316),#319,.T.);
#316 = FACE_BOUND('',#317,.F.);
#317 = EDGE_LOOP('',(#318));
#318 = ORIENTED_EDGE('',*,*,#287,.F.);
#319 = PLANE('',#320);
#320 = AXIS2_PLACEMENT_3D('',#321,#322,#323);
#321 = CARTESIAN_POINT('',(5.4E+03,0.,1.5E+03));
#322 = DIRECTION('',(0.,0.,1.));
#323 = DIRECTION('',(1.,0.,0.));
#324 = MANIFOLD_SOLID_BREP('',#325);
#325 = CLOSED_SHELL('',(#326,#366,#406,#428,#450,#462));
#326 = ADVANCED_FACE('',(#327),#361,.F.);
#327 = FACE_BOUND('',#328,.F.);
#328 = EDGE_LOOP('',(#329,#339,#347,#355));
#329 = ORIENTED_EDGE('',*,*,#330,.F.);
#330 = EDGE_CURVE('',#331,#333,#335,.T.);
#331 = VERTEX_POINT('',#332);
#332 = CARTESIAN_POINT('',(-1.5E+03,-1.75E+03,-100.));
#333 = VERTEX_POINT('',#334);
#334 = CARTESIAN_POINT('',(-1.5E+03,-1.75E+03,0.));
#335 = LINE('',#336,#337);
#336 = CARTESIAN_POINT('',(-1.5E+03,-1.75E+03,-100.));
#337 = VECTOR('',#338,1.);
#338 = DIRECTION('',(0.,0.,1.));
#339 = ORIENTED_EDGE('',*,*,#340,.T.);
#340 = EDGE_CURVE('',#331,#341,#343,.T.);
#341 = VERTEX_POINT('',#342);
#342 = CARTESIAN_POINT('',(-1.5E+03,1.75E+03,-100.));
#343 = LINE('',#344,#345);
#344 = CARTESIAN_POINT('',(-1.5E+03,-1.75E+03,-100.));
#345 = VECTOR('',#346,1.);
#346 = DIRECTION('',(0.,1.,0.));
#347 = ORIENTED_EDGE('',*,*,#348,.T.);
#348 = EDGE_CURVE('',#341,#349,#351,.T.);
#349 = VERTEX_POINT('',#350);
#350 = CARTESIAN_POINT('',(-1.5E+03,1.75E+03,0.));
#351 = LINE('',#352,#353);
#352 = CARTESIAN_POINT('',(-1.5E+03,1.75E+03,-100.));
#353 = VECTOR('',#354,1.);
#354 = DIRECTION('',(0.,0.,1.));
#355 = ORIENTED_EDGE('',*,*,#356,.F.);
#356 = EDGE_CURVE('',#333,#349,#357,.T.);
#357 = LINE('',#358,#359);
#358 = CARTESIAN_POINT('',(-1.5E+03,-1.75E+03,0.));
#359 = VECTOR('',#360,1.);
#360 = DIRECTION('',(0.,1.,0.));
#361 = PLANE('',#362);
#362 = AXIS2_PLACEMENT_3D('',#363,#364,#365);
#363 = CARTESIAN_POINT('',(-1.5E+03,-1.75E+03,-100.));
#364 = DIRECTION('',(1.,0.,0.));
#365 = DIRECTION('',(0.,0.,1.));
#366 = ADVANCED_FACE('',(#367),#401,.T.);
#367 = FACE_BOUND('',#368,.T.);
#368 = EDGE_LOOP('',(#369,#379,#387,#395));
#369 = ORIENTED_EDGE('',*,*,#370,.F.);
#370 = EDGE_CURVE('',#371,#373,#375,.T.);
#371 = VERTEX_POINT('',#372);
#372 = CARTESIAN_POINT('',(6.5E+03,-1.75E+03,-100.));
#373 = VERTEX_POINT('',#374);
#374 = CARTESIAN_POINT('',(6.5E+03,-1.75E+03,0.));
#375 = LINE('',#376,#377);
#376 = CARTESIAN_POINT('',(6.5E+03,-1.75E+03,-100.));
#377 = VECTOR('',#378,1.);
#378 = DIRECTION('',(0.,0.,1.));
#379 = ORIENTED_EDGE('',*,*,#380,.T.);
#380 = EDGE_CURVE('',#371,#381,#383,.T.);
#381 = VERTEX_POINT('',#382);
#382 = CARTESIAN_POINT('',(6.5E+03,1.75E+03,-100.));
#383 = LINE('',#384,#385);
#384 = CARTESIAN_POINT('',(6.5E+03,-1.75E+03,-100.));
#385 = VECTOR('',#386,1.);
#386 = DIRECTION('',(0.,1.,0.));
#387 = ORIENTED_EDGE('',*,*,#388,.T.);
#388 = EDGE_CURVE('',#381,#389,#391,.T.);
#389 = VERTEX_POINT('',#390);
#390 = CARTESIAN_POINT('',(6.5E+03,1.75E+03,0.));
#391 = LINE('',#392,#393);
#392 = CARTESIAN_POINT('',(6.5E+03,1.75E+03,-100.));
#393 = VECTOR('',#394,1.);
#394 = DIRECTION('',(0.,0.,1.));
#395 = ORIENTED_EDGE('',*,*,#396,.F.);
#396 = EDGE_CURVE('',#373,#389,#397,.T.);
#397 = LINE('',#398,#399);
#398 = CARTESIAN_POINT('',(6.5E+03,-1.75E+03,0.));
#399 = VECTOR('',#400,1.);
#400 = DIRECTION('',(0.,1.,0.));
#401 = PLANE('',#402);
#402 = AXIS2_PLACEMENT_3D('',#403,#404,#405);
#403 = CARTESIAN_POINT('',(6.5E+03,-1.75E+03,-100.));
#404 = DIRECTION('',(1.,0.,0.));
#405 = DIRECTION('',(0.,0.,1.));
#406 = ADVANCED_FACE('',(#407),#423,.F.);
#407 = FACE_BOUND('',#408,.F.);
#408 = EDGE_LOOP('',(#409,#415,#416,#422));
#409 = ORIENTED_EDGE('',*,*,#410,.F.);
#410 = EDGE_CURVE('',#331,#371,#411,.T.);
#411 = LINE('',#412,#413);
#412 = CARTESIAN_POINT('',(-1.5E+03,-1.75E+03,-100.));
#413 = VECTOR('',#414,1.);
#414 = DIRECTION('',(1.,0.,0.));
#415 = ORIENTED_EDGE('',*,*,#330,.T.);
#416 = ORIENTED_EDGE('',*,*,#417,.T.);
#417 = EDGE_CURVE('',#333,#373,#418,.T.);
#418 = LINE('',#419,#420);
#419 = CARTESIAN_POINT('',(-1.5E+03,-1.75E+03,0.));
#420 = VECTOR('',#421,1.);
#421 = DIRECTION('',(1.,0.,0.));
#422 = ORIENTED_EDGE('',*,*,#370,.F.);
#423 = PLANE('',#424);
#424 = AXIS2_PLACEMENT_3D('',#425,#426,#427);
#425 = CARTESIAN_POINT('',(-1.5E+03,-1.75E+03,-100.));
#426 = DIRECTION('',(0.,1.,0.));
#427 = DIRECTION('',(0.,0.,1.));
#428 = ADVANCED_FACE('',(#429),#445,.T.);
#429 = FACE_BOUND('',#430,.T.);
#430 = EDGE_LOOP('',(#431,#437,#438,#444));
#431 = ORIENTED_EDGE('',*,*,#432,.F.);
#432 = EDGE_CURVE('',#341,#381,#433,.T.);
#433 = LINE('',#434,#435);
#434 = CARTESIAN_POINT('',(-1.5E+03,1.75E+03,-100.));
#435 = VECTOR('',#436,1.);
#436 = DIRECTION('',(1.,0.,0.));
#437 = ORIENTED_EDGE('',*,*,#348,.T.);
#438 = ORIENTED_EDGE('',*,*,#439,.T.);
#439 = EDGE_CURVE('',#349,#389,#440,.T.);
#440 = LINE('',#441,#442);
#441 = CARTESIAN_POINT('',(-1.5E+03,1.75E+03,0.));
#442 = VECTOR('',#443,1.);
#443 = DIRECTION('',(1.,0.,0.));
#444 = ORIENTED_EDGE('',*,*,#388,.F.);
#445 = PLANE('',#446);
#446 = AXIS2_PLACEMENT_3D('',#447,#448,#449);
#447 = CARTESIAN_POINT('',(-1.5E+03,1.75E+03,-100.));
#448 = DIRECTION('',(0.,1.,0.));
#449 = DIRECTION('',(0.,0.,1.));
#450 = ADVANCED_FACE('',(#451),#457,.F.);
#451 = FACE_BOUND('',#452,.F.);
#452 = EDGE_LOOP('',(#453,#454,#455,#456));
#453 = ORIENTED_EDGE('',*,*,#340,.F.);
#454 = ORIENTED_EDGE('',*,*,#410,.T.);
#455 = ORIENTED_EDGE('',*,*,#380,.T.);
#456 = ORIENTED_EDGE('',*,*,#432,.F.);
#457 = PLANE('',#458);
#458 = AXIS2_PLACEMENT_3D('',#459,#460,#461);
#459 = CARTESIAN_POINT('',(-1.5E+03,-1.75E+03,-100.));
#460 = DIRECTION('',(0.,0.,1.));
#461 = DIRECTION('',(1.,0.,0.));
#462 = ADVANCED_FACE('',(#463),#469,.T.);
#463 = FACE_BOUND('',#464,.T.);
#464 = EDGE_LOOP('',(#465,#466,#467,#468));
#465 = ORIENTED_EDGE('',*,*,#356,.F.);
#466 = ORIENTED_EDGE('',*,*,#417,.T.);
#467 = ORIENTED_EDGE('',*,*,#396,.T.);
#468 = ORIENTED_EDGE('',*,*,#439,.F.);
#469 = PLANE('',#470);
#470 = AXIS2_PLACEMENT_3D('',#471,#472,#473);
#471 = CARTESIAN_POINT('',(-1.5E+03,-1.75E+03,0.));
#472 = DIRECTION('',(0.,0.,1.));
#473 = DIRECTION('',(1.,0.,0.));
#474 = MANIFOLD_SOLID_BREP('',#475);
#475 = CLOSED_SHELL('',(#476,#509,#529,#549));
#476 = ADVANCED_FACE('',(#477),#504,.T.);
#477 = FACE_BOUND('',#478,.T.);
#478 = EDGE_LOOP('',(#479,#488,#496,#503));
#479 = ORIENTED_EDGE('',*,*,#480,.F.);
#480 = EDGE_CURVE('',#481,#481,#483,.T.);
#481 = VERTEX_POINT('',#482);
#482 = CARTESIAN_POINT('',(601.,2.061080562965E-14,684.15));
#483 = CIRCLE('',#484,84.15);
#484 = AXIS2_PLACEMENT_3D('',#485,#486,#487);
#485 = CARTESIAN_POINT('',(601.,0.,600.));
#486 = DIRECTION('',(1.,0.,-0.));
#487 = DIRECTION('',(0.,0.,1.));
#488 = ORIENTED_EDGE('',*,*,#489,.F.);
#489 = EDGE_CURVE('',#490,#481,#492,.T.);
#490 = VERTEX_POINT('',#491);
#491 = CARTESIAN_POINT('',(600.,2.061080562965E-14,684.15));
#492 = LINE('',#493,#494);
#493 = CARTESIAN_POINT('',(600.,2.061080562965E-14,684.15));
#494 = VECTOR('',#495,1.);
#495 = DIRECTION('',(1.,0.,0.));
#496 = ORIENTED_EDGE('',*,*,#497,.T.);
#497 = EDGE_CURVE('',#490,#490,#498,.T.);
#498 = CIRCLE('',#499,84.15);
#499 = AXIS2_PLACEMENT_3D('',#500,#501,#502);
#500 = CARTESIAN_POINT('',(600.,0.,600.));
#501 = DIRECTION('',(1.,0.,-0.));
#502 = DIRECTION('',(0.,0.,1.));
#503 = ORIENTED_EDGE('',*,*,#489,.T.);
#504 = CYLINDRICAL_SURFACE('',#505,84.15);
#505 = AXIS2_PLACEMENT_3D('',#506,#507,#508);
#506 = CARTESIAN_POINT('',(600.,0.,600.));
#507 = DIRECTION('',(1.,0.,0.));
#508 = DIRECTION('',(0.,0.,1.));
#509 = ADVANCED_FACE('',(#510,#513),#524,.T.);
#510 = FACE_BOUND('',#511,.T.);
#511 = EDGE_LOOP('',(#512));
#512 = ORIENTED_EDGE('',*,*,#480,.T.);
#513 = FACE_BOUND('',#514,.T.);
#514 = EDGE_LOOP('',(#515));
#515 = ORIENTED_EDGE('',*,*,#516,.F.);
#516 = EDGE_CURVE('',#517,#517,#519,.T.);
#517 = VERTEX_POINT('',#518);
#518 = CARTESIAN_POINT('',(601.,1.977804580623E-14,680.75));
#519 = CIRCLE('',#520,80.75);
#520 = AXIS2_PLACEMENT_3D('',#521,#522,#523);
#521 = CARTESIAN_POINT('',(601.,0.,600.));
#522 = DIRECTION('',(1.,0.,-0.));
#523 = DIRECTION('',(0.,0.,1.));
#524 = PLANE('',#525);
#525 = AXIS2_PLACEMENT_3D('',#526,#527,#528);
#526 = CARTESIAN_POINT('',(601.,0.,600.));
#527 = DIRECTION('',(1.,0.,0.));
#528 = DIRECTION('',(0.,0.,1.));
#529 = ADVANCED_FACE('',(#530,#533),#544,.F.);
#530 = FACE_BOUND('',#531,.F.);
#531 = EDGE_LOOP('',(#532));
#532 = ORIENTED_EDGE('',*,*,#497,.T.);
#533 = FACE_BOUND('',#534,.F.);
#534 = EDGE_LOOP('',(#535));
#535 = ORIENTED_EDGE('',*,*,#536,.F.);
#536 = EDGE_CURVE('',#537,#537,#539,.T.);
#537 = VERTEX_POINT('',#538);
#538 = CARTESIAN_POINT('',(600.,1.977804580623E-14,680.75));
#539 = CIRCLE('',#540,80.75);
#540 = AXIS2_PLACEMENT_3D('',#541,#542,#543);
#541 = CARTESIAN_POINT('',(600.,0.,600.));
#542 = DIRECTION('',(1.,0.,-0.));
#543 = DIRECTION('',(0.,0.,1.));
#544 = PLANE('',#545);
#545 = AXIS2_PLACEMENT_3D('',#546,#547,#548);
#546 = CARTESIAN_POINT('',(600.,0.,600.));
#547 = DIRECTION('',(1.,0.,0.));
#548 = DIRECTION('',(0.,0.,1.));
#549 = ADVANCED_FACE('',(#550),#561,.F.);
#550 = FACE_BOUND('',#551,.F.);
#551 = EDGE_LOOP('',(#552,#553,#559,#560));
#552 = ORIENTED_EDGE('',*,*,#516,.F.);
#553 = ORIENTED_EDGE('',*,*,#554,.F.);
#554 = EDGE_CURVE('',#537,#517,#555,.T.);
#555 = LINE('',#556,#557);
#556 = CARTESIAN_POINT('',(600.,1.977804580623E-14,680.75));
#557 = VECTOR('',#558,1.);
#558 = DIRECTION('',(1.,0.,0.));
#559 = ORIENTED_EDGE('',*,*,#536,.T.);
#560 = ORIENTED_EDGE('',*,*,#554,.T.);
#561 = CYLINDRICAL_SURFACE('',#562,80.75);
#562 = AXIS2_PLACEMENT_3D('',#563,#564,#565);
#563 = CARTESIAN_POINT('',(600.,0.,600.));
#564 = DIRECTION('',(1.,0.,0.));
#565 = DIRECTION('',(0.,0.,1.));
#566 = MANIFOLD_SOLID_BREP('',#567);
#567 = CLOSED_SHELL('',(#568,#602,#622,#642));
#568 = ADVANCED_FACE('',(#569),#597,.T.);
#569 = FACE_BOUND('',#570,.T.);
#570 = EDGE_LOOP('',(#571,#582,#589,#590));
#571 = ORIENTED_EDGE('',*,*,#572,.T.);
#572 = EDGE_CURVE('',#573,#575,#577,.T.);
#573 = VERTEX_POINT('',#574);
#574 = CARTESIAN_POINT('',(601.,84.15,600.));
#575 = VERTEX_POINT('',#576);
#576 = CARTESIAN_POINT('',(624.94020424012,84.15,601.13770598925));
#577 = CIRCLE('',#578,252.45000000006);
#578 = AXIS2_PLACEMENT_3D('',#579,#580,#581);
#579 = CARTESIAN_POINT('',(600.99999999999,84.15,852.45000000006));
#580 = DIRECTION('',(0.,-1.,0.));
#581 = DIRECTION('',(1.170868600024E-14,0.,-1.));
#582 = ORIENTED_EDGE('',*,*,#583,.T.);
#583 = EDGE_CURVE('',#575,#575,#584,.T.);
#584 = CIRCLE('',#585,84.15);
#585 = AXIS2_PLACEMENT_3D('',#586,#587,#588);
#586 = CARTESIAN_POINT('',(624.94020424012,0.,601.13770598925));
#587 = DIRECTION('',(-0.995493341298,-0.,-9.483146856853E-02));
#588 = DIRECTION('',(9.483146856853E-02,0.,-0.995493341298));
#589 = ORIENTED_EDGE('',*,*,#572,.F.);
#590 = ORIENTED_EDGE('',*,*,#591,.F.);
#591 = EDGE_CURVE('',#573,#573,#592,.T.);
#592 = CIRCLE('',#593,84.15);
#593 = AXIS2_PLACEMENT_3D('',#594,#595,#596);
#594 = CARTESIAN_POINT('',(601.,0.,600.));
#595 = DIRECTION('',(-1.,-0.,-1.170868600024E-14));
#596 = DIRECTION('',(1.170868600024E-14,0.,-1.));
#597 = TOROIDAL_SURFACE('',#598,252.45000000006,84.15);
#598 = AXIS2_PLACEMENT_3D('',#599,#600,#601);
#599 = CARTESIAN_POINT('',(600.99999999999,0.,852.45000000006));
#600 = DIRECTION('',(0.,-1.,0.));
#601 = DIRECTION('',(1.170868600024E-14,0.,-1.));
#602 = ADVANCED_FACE('',(#603,#606),#617,.F.);
#603 = FACE_BOUND('',#604,.F.);
#604 = EDGE_LOOP('',(#605));
#605 = ORIENTED_EDGE('',*,*,#591,.F.);
#606 = FACE_BOUND('',#607,.F.);
#607 = EDGE_LOOP('',(#608));
#608 = ORIENTED_EDGE('',*,*,#609,.T.);
#609 = EDGE_CURVE('',#610,#610,#612,.T.);
#610 = VERTEX_POINT('',#611);
#611 = CARTESIAN_POINT('',(601.,80.75,600.));
#612 = CIRCLE('',#613,80.75);
#613 = AXIS2_PLACEMENT_3D('',#614,#615,#616);
#614 = CARTESIAN_POINT('',(601.,0.,600.));
#615 = DIRECTION('',(-1.,-0.,-1.170868600024E-14));
#616 = DIRECTION('',(1.170868600024E-14,0.,-1.));
#617 = PLANE('',#618);
#618 = AXIS2_PLACEMENT_3D('',#619,#620,#621);
#619 = CARTESIAN_POINT('',(601.,1.544891823209E-14,600.));
#620 = DIRECTION('',(1.,0.,1.248002402603E-14));
#621 = DIRECTION('',(-1.248002402603E-14,0.,1.));
#622 = ADVANCED_FACE('',(#623,#626),#637,.T.);
#623 = FACE_BOUND('',#624,.T.);
#624 = EDGE_LOOP('',(#625));
#625 = ORIENTED_EDGE('',*,*,#583,.F.);
#626 = FACE_BOUND('',#627,.T.);
#627 = EDGE_LOOP('',(#628));
#628 = ORIENTED_EDGE('',*,*,#629,.T.);
#629 = EDGE_CURVE('',#630,#630,#632,.T.);
#630 = VERTEX_POINT('',#631);
#631 = CARTESIAN_POINT('',(624.94020424012,80.75,601.13770598925));
#632 = CIRCLE('',#633,80.75);
#633 = AXIS2_PLACEMENT_3D('',#634,#635,#636);
#634 = CARTESIAN_POINT('',(624.94020424012,0.,601.13770598925));
#635 = DIRECTION('',(-0.995493341298,-0.,-9.483146856853E-02));
#636 = DIRECTION('',(9.483146856853E-02,0.,-0.995493341298));
#637 = PLANE('',#638);
#638 = AXIS2_PLACEMENT_3D('',#639,#640,#641);
#639 = CARTESIAN_POINT('',(624.94020424012,2.376893424944E-14,
    601.13770598925));
#640 = DIRECTION('',(0.995493341298,0.,9.483146856853E-02));
#641 = DIRECTION('',(-9.483146856853E-02,0.,0.995493341298));
#642 = ADVANCED_FACE('',(#643),#655,.F.);
#643 = FACE_BOUND('',#644,.F.);
#644 = EDGE_LOOP('',(#645,#652,#653,#654));
#645 = ORIENTED_EDGE('',*,*,#646,.T.);
#646 = EDGE_CURVE('',#610,#630,#647,.T.);
#647 = CIRCLE('',#648,252.45000000006);
#648 = AXIS2_PLACEMENT_3D('',#649,#650,#651);
#649 = CARTESIAN_POINT('',(600.99999999999,80.75,852.45000000006));
#650 = DIRECTION('',(0.,-1.,0.));
#651 = DIRECTION('',(1.170868600024E-14,0.,-1.));
#652 = ORIENTED_EDGE('',*,*,#629,.T.);
#653 = ORIENTED_EDGE('',*,*,#646,.F.);
#654 = ORIENTED_EDGE('',*,*,#609,.F.);
#655 = TOROIDAL_SURFACE('',#656,252.45000000006,80.75);
#656 = AXIS2_PLACEMENT_3D('',#657,#658,#659);
#657 = CARTESIAN_POINT('',(600.99999999999,0.,852.45000000006));
#658 = DIRECTION('',(0.,-1.,0.));
#659 = DIRECTION('',(1.170868600024E-14,0.,-1.));
#660 = MANIFOLD_SOLID_BREP('',#661);
#661 = CLOSED_SHELL('',(#662,#695,#715,#735));
#662 = ADVANCED_FACE('',(#663),#690,.T.);
#663 = FACE_BOUND('',#664,.T.);
#664 = EDGE_LOOP('',(#665,#674,#682,#689));
#665 = ORIENTED_EDGE('',*,*,#666,.F.);
#666 = EDGE_CURVE('',#667,#667,#669,.T.);
#667 = VERTEX_POINT('',#668);
#668 = CARTESIAN_POINT('',(4.79212782225E+03,2.061080562965E-14,
    1.082638185934E+03));
#669 = CIRCLE('',#670,84.15);
#670 = AXIS2_PLACEMENT_3D('',#671,#672,#673);
#671 = CARTESIAN_POINT('',(4.80010789033E+03,0.,998.86742126333));
#672 = DIRECTION('',(0.995493341298,0.,9.483146856854E-02));
#673 = DIRECTION('',(-9.483146856854E-02,0.,0.995493341298));
#674 = ORIENTED_EDGE('',*,*,#675,.F.);
#675 = EDGE_CURVE('',#676,#667,#678,.T.);
#676 = VERTEX_POINT('',#677);
#677 = CARTESIAN_POINT('',(616.96013616008,2.061080562965E-14,
    684.9084706595));
#678 = LINE('',#679,#680);
#679 = CARTESIAN_POINT('',(616.96013616008,2.061080562965E-14,
    684.9084706595));
#680 = VECTOR('',#681,1.);
#681 = DIRECTION('',(0.995493341298,-1.735644677445E-33,
    9.483146856854E-02));
#682 = ORIENTED_EDGE('',*,*,#683,.T.);
#683 = EDGE_CURVE('',#676,#676,#684,.T.);
#684 = CIRCLE('',#685,84.15);
#685 = AXIS2_PLACEMENT_3D('',#686,#687,#688);
#686 = CARTESIAN_POINT('',(624.94020424012,0.,601.13770598925));
#687 = DIRECTION('',(0.995493341298,0.,9.483146856854E-02));
#688 = DIRECTION('',(-9.483146856854E-02,0.,0.995493341298));
#689 = ORIENTED_EDGE('',*,*,#675,.T.);
#690 = CYLINDRICAL_SURFACE('',#691,84.15);
#691 = AXIS2_PLACEMENT_3D('',#692,#693,#694);
#692 = CARTESIAN_POINT('',(624.94020424012,0.,601.13770598925));
#693 = DIRECTION('',(0.995493341298,0.,9.483146856854E-02));
#694 = DIRECTION('',(-9.483146856854E-02,0.,0.995493341298));
#695 = ADVANCED_FACE('',(#696,#699),#710,.T.);
#696 = FACE_BOUND('',#697,.T.);
#697 = EDGE_LOOP('',(#698));
#698 = ORIENTED_EDGE('',*,*,#666,.T.);
#699 = FACE_BOUND('',#700,.T.);
#700 = EDGE_LOOP('',(#701));
#701 = ORIENTED_EDGE('',*,*,#702,.F.);
#702 = EDGE_CURVE('',#703,#703,#705,.T.);
#703 = VERTEX_POINT('',#704);
#704 = CARTESIAN_POINT('',(4.792450249243E+03,1.977804580623E-14,
    1.079253508573E+03));
#705 = CIRCLE('',#706,80.75);
#706 = AXIS2_PLACEMENT_3D('',#707,#708,#709);
#707 = CARTESIAN_POINT('',(4.80010789033E+03,0.,998.86742126333));
#708 = DIRECTION('',(0.995493341298,0.,9.483146856854E-02));
#709 = DIRECTION('',(-9.483146856854E-02,0.,0.995493341298));
#710 = PLANE('',#711);
#711 = AXIS2_PLACEMENT_3D('',#712,#713,#714);
#712 = CARTESIAN_POINT('',(4.80010789033E+03,0.,998.86742126333));
#713 = DIRECTION('',(0.995493341298,0.,9.483146856854E-02));
#714 = DIRECTION('',(-9.483146856854E-02,0.,0.995493341298));
#715 = ADVANCED_FACE('',(#716,#719),#730,.F.);
#716 = FACE_BOUND('',#717,.F.);
#717 = EDGE_LOOP('',(#718));
#718 = ORIENTED_EDGE('',*,*,#683,.T.);
#719 = FACE_BOUND('',#720,.F.);
#720 = EDGE_LOOP('',(#721));
#721 = ORIENTED_EDGE('',*,*,#722,.F.);
#722 = EDGE_CURVE('',#723,#723,#725,.T.);
#723 = VERTEX_POINT('',#724);
#724 = CARTESIAN_POINT('',(617.28256315321,1.977804580623E-14,
    681.52379329909));
#725 = CIRCLE('',#726,80.75);
#726 = AXIS2_PLACEMENT_3D('',#727,#728,#729);
#727 = CARTESIAN_POINT('',(624.94020424012,0.,601.13770598925));
#728 = DIRECTION('',(0.995493341298,0.,9.483146856854E-02));
#729 = DIRECTION('',(-9.483146856854E-02,0.,0.995493341298));
#730 = PLANE('',#731);
#731 = AXIS2_PLACEMENT_3D('',#732,#733,#734);
#732 = CARTESIAN_POINT('',(624.94020424012,0.,601.13770598925));
#733 = DIRECTION('',(0.995493341298,0.,9.483146856854E-02));
#734 = DIRECTION('',(-9.483146856854E-02,0.,0.995493341298));
#735 = ADVANCED_FACE('',(#736),#747,.F.);
#736 = FACE_BOUND('',#737,.F.);
#737 = EDGE_LOOP('',(#738,#739,#745,#746));
#738 = ORIENTED_EDGE('',*,*,#702,.F.);
#739 = ORIENTED_EDGE('',*,*,#740,.F.);
#740 = EDGE_CURVE('',#723,#703,#741,.T.);
#741 = LINE('',#742,#743);
#742 = CARTESIAN_POINT('',(617.28256315321,1.977804580623E-14,
    681.52379329909));
#743 = VECTOR('',#744,1.);
#744 = DIRECTION('',(0.995493341298,-1.735644677445E-33,
    9.483146856854E-02));
#745 = ORIENTED_EDGE('',*,*,#722,.T.);
#746 = ORIENTED_EDGE('',*,*,#740,.T.);
#747 = CYLINDRICAL_SURFACE('',#748,80.75);
#748 = AXIS2_PLACEMENT_3D('',#749,#750,#751);
#749 = CARTESIAN_POINT('',(624.94020424012,0.,601.13770598925));
#750 = DIRECTION('',(0.995493341298,0.,9.483146856854E-02));
#751 = DIRECTION('',(-9.483146856854E-02,0.,0.995493341298));
#752 = MANIFOLD_SOLID_BREP('',#753);
#753 = CLOSED_SHELL('',(#754,#787,#807,#827));
#754 = ADVANCED_FACE('',(#755),#782,.T.);
#755 = FACE_BOUND('',#756,.T.);
#756 = EDGE_LOOP('',(#757,#766,#774,#781));
#757 = ORIENTED_EDGE('',*,*,#758,.F.);
#758 = EDGE_CURVE('',#759,#759,#761,.T.);
#759 = VERTEX_POINT('',#760);
#760 = CARTESIAN_POINT('',(4.799E+03,2.061080562965E-14,315.85));
#761 = CIRCLE('',#762,84.15);
#762 = AXIS2_PLACEMENT_3D('',#763,#764,#765);
#763 = CARTESIAN_POINT('',(4.799E+03,0.,400.));
#764 = DIRECTION('',(-1.,0.,0.));
#765 = DIRECTION('',(0.,0.,-1.));
#766 = ORIENTED_EDGE('',*,*,#767,.F.);
#767 = EDGE_CURVE('',#768,#759,#770,.T.);
#768 = VERTEX_POINT('',#769);
#769 = CARTESIAN_POINT('',(4.8E+03,2.061080562965E-14,315.85));
#770 = LINE('',#771,#772);
#771 = CARTESIAN_POINT('',(4.8E+03,2.061080562965E-14,315.85));
#772 = VECTOR('',#773,1.);
#773 = DIRECTION('',(-1.,0.,0.));
#774 = ORIENTED_EDGE('',*,*,#775,.T.);
#775 = EDGE_CURVE('',#768,#768,#776,.T.);
#776 = CIRCLE('',#777,84.15);
#777 = AXIS2_PLACEMENT_3D('',#778,#779,#780);
#778 = CARTESIAN_POINT('',(4.8E+03,0.,400.));
#779 = DIRECTION('',(-1.,0.,0.));
#780 = DIRECTION('',(0.,0.,-1.));
#781 = ORIENTED_EDGE('',*,*,#767,.T.);
#782 = CYLINDRICAL_SURFACE('',#783,84.15);
#783 = AXIS2_PLACEMENT_3D('',#784,#785,#786);
#784 = CARTESIAN_POINT('',(4.8E+03,0.,400.));
#785 = DIRECTION('',(-1.,0.,0.));
#786 = DIRECTION('',(0.,0.,-1.));
#787 = ADVANCED_FACE('',(#788,#791),#802,.T.);
#788 = FACE_BOUND('',#789,.T.);
#789 = EDGE_LOOP('',(#790));
#790 = ORIENTED_EDGE('',*,*,#758,.T.);
#791 = FACE_BOUND('',#792,.T.);
#792 = EDGE_LOOP('',(#793));
#793 = ORIENTED_EDGE('',*,*,#794,.F.);
#794 = EDGE_CURVE('',#795,#795,#797,.T.);
#795 = VERTEX_POINT('',#796);
#796 = CARTESIAN_POINT('',(4.799E+03,1.977804580623E-14,319.25));
#797 = CIRCLE('',#798,80.75);
#798 = AXIS2_PLACEMENT_3D('',#799,#800,#801);
#799 = CARTESIAN_POINT('',(4.799E+03,0.,400.));
#800 = DIRECTION('',(-1.,0.,0.));
#801 = DIRECTION('',(0.,0.,-1.));
#802 = PLANE('',#803);
#803 = AXIS2_PLACEMENT_3D('',#804,#805,#806);
#804 = CARTESIAN_POINT('',(4.799E+03,0.,400.));
#805 = DIRECTION('',(-1.,0.,0.));
#806 = DIRECTION('',(0.,0.,-1.));
#807 = ADVANCED_FACE('',(#808,#811),#822,.F.);
#808 = FACE_BOUND('',#809,.F.);
#809 = EDGE_LOOP('',(#810));
#810 = ORIENTED_EDGE('',*,*,#775,.T.);
#811 = FACE_BOUND('',#812,.F.);
#812 = EDGE_LOOP('',(#813));
#813 = ORIENTED_EDGE('',*,*,#814,.F.);
#814 = EDGE_CURVE('',#815,#815,#817,.T.);
#815 = VERTEX_POINT('',#816);
#816 = CARTESIAN_POINT('',(4.8E+03,1.977804580623E-14,319.25));
#817 = CIRCLE('',#818,80.75);
#818 = AXIS2_PLACEMENT_3D('',#819,#820,#821);
#819 = CARTESIAN_POINT('',(4.8E+03,0.,400.));
#820 = DIRECTION('',(-1.,0.,0.));
#821 = DIRECTION('',(0.,0.,-1.));
#822 = PLANE('',#823);
#823 = AXIS2_PLACEMENT_3D('',#824,#825,#826);
#824 = CARTESIAN_POINT('',(4.8E+03,0.,400.));
#825 = DIRECTION('',(-1.,0.,0.));
#826 = DIRECTION('',(0.,0.,-1.));
#827 = ADVANCED_FACE('',(#828),#839,.F.);
#828 = FACE_BOUND('',#829,.F.);
#829 = EDGE_LOOP('',(#830,#831,#837,#838));
#830 = ORIENTED_EDGE('',*,*,#794,.F.);
#831 = ORIENTED_EDGE('',*,*,#832,.F.);
#832 = EDGE_CURVE('',#815,#795,#833,.T.);
#833 = LINE('',#834,#835);
#834 = CARTESIAN_POINT('',(4.8E+03,1.977804580623E-14,319.25));
#835 = VECTOR('',#836,1.);
#836 = DIRECTION('',(-1.,0.,0.));
#837 = ORIENTED_EDGE('',*,*,#814,.T.);
#838 = ORIENTED_EDGE('',*,*,#832,.T.);
#839 = CYLINDRICAL_SURFACE('',#840,80.75);
#840 = AXIS2_PLACEMENT_3D('',#841,#842,#843);
#841 = CARTESIAN_POINT('',(4.8E+03,0.,400.));
#842 = DIRECTION('',(-1.,0.,0.));
#843 = DIRECTION('',(0.,0.,-1.));
#844 = MANIFOLD_SOLID_BREP('',#845);
#845 = CLOSED_SHELL('',(#846,#880,#900,#920));
#846 = ADVANCED_FACE('',(#847),#875,.T.);
#847 = FACE_BOUND('',#848,.T.);
#848 = EDGE_LOOP('',(#849,#860,#867,#868));
#849 = ORIENTED_EDGE('',*,*,#850,.T.);
#850 = EDGE_CURVE('',#851,#853,#855,.T.);
#851 = VERTEX_POINT('',#852);
#852 = CARTESIAN_POINT('',(4.799E+03,2.84217094304E-14,484.15));
#853 = VERTEX_POINT('',#854);
#854 = CARTESIAN_POINT('',(4.588787341191E+03,112.65858189222,484.15));
#855 = CIRCLE('',#856,252.44999999999);
#856 = AXIS2_PLACEMENT_3D('',#857,#858,#859);
#857 = CARTESIAN_POINT('',(4.799E+03,252.44999999999,484.15));
#858 = DIRECTION('',(0.,-0.,-1.));
#859 = DIRECTION('',(3.60267261546E-15,-1.,0.));
#860 = ORIENTED_EDGE('',*,*,#861,.T.);
#861 = EDGE_CURVE('',#853,#853,#862,.T.);
#862 = CIRCLE('',#863,84.15);
#863 = AXIS2_PLACEMENT_3D('',#864,#865,#866);
#864 = CARTESIAN_POINT('',(4.588787341191E+03,112.65858189222,400.));
#865 = DIRECTION('',(0.553739029938,-0.832690270583,0.));
#866 = DIRECTION('',(-0.832690270583,-0.553739029938,0.));
#867 = ORIENTED_EDGE('',*,*,#850,.F.);
#868 = ORIENTED_EDGE('',*,*,#869,.F.);
#869 = EDGE_CURVE('',#851,#851,#870,.T.);
#870 = CIRCLE('',#871,84.15);
#871 = AXIS2_PLACEMENT_3D('',#872,#873,#874);
#872 = CARTESIAN_POINT('',(4.799E+03,0.,400.));
#873 = DIRECTION('',(1.,3.60267261546E-15,0.));
#874 = DIRECTION('',(3.60267261546E-15,-1.,0.));
#875 = TOROIDAL_SURFACE('',#876,252.44999999999,84.15);
#876 = AXIS2_PLACEMENT_3D('',#877,#878,#879);
#877 = CARTESIAN_POINT('',(4.799E+03,252.44999999999,400.));
#878 = DIRECTION('',(-0.,-0.,-1.));
#879 = DIRECTION('',(3.60267261546E-15,-1.,0.));
#880 = ADVANCED_FACE('',(#881,#884),#895,.F.);
#881 = FACE_BOUND('',#882,.F.);
#882 = EDGE_LOOP('',(#883));
#883 = ORIENTED_EDGE('',*,*,#869,.F.);
#884 = FACE_BOUND('',#885,.F.);
#885 = EDGE_LOOP('',(#886));
#886 = ORIENTED_EDGE('',*,*,#887,.T.);
#887 = EDGE_CURVE('',#888,#888,#890,.T.);
#888 = VERTEX_POINT('',#889);
#889 = CARTESIAN_POINT('',(4.799E+03,2.84217094304E-14,480.75));
#890 = CIRCLE('',#891,80.75);
#891 = AXIS2_PLACEMENT_3D('',#892,#893,#894);
#892 = CARTESIAN_POINT('',(4.799E+03,0.,400.));
#893 = DIRECTION('',(1.,3.60267261546E-15,0.));
#894 = DIRECTION('',(3.60267261546E-15,-1.,0.));
#895 = PLANE('',#896);
#896 = AXIS2_PLACEMENT_3D('',#897,#898,#899);
#897 = CARTESIAN_POINT('',(4.799E+03,1.999787098636E-15,400.));
#898 = DIRECTION('',(-1.,-0.,-0.));
#899 = DIRECTION('',(0.,0.,-1.));
#900 = ADVANCED_FACE('',(#901,#904),#915,.T.);
#901 = FACE_BOUND('',#902,.T.);
#902 = EDGE_LOOP('',(#903));
#903 = ORIENTED_EDGE('',*,*,#861,.F.);
#904 = FACE_BOUND('',#905,.T.);
#905 = EDGE_LOOP('',(#906));
#906 = ORIENTED_EDGE('',*,*,#907,.T.);
#907 = EDGE_CURVE('',#908,#908,#910,.T.);
#908 = VERTEX_POINT('',#909);
#909 = CARTESIAN_POINT('',(4.588787341191E+03,112.65858189222,480.75));
#910 = CIRCLE('',#911,80.75);
#911 = AXIS2_PLACEMENT_3D('',#912,#913,#914);
#912 = CARTESIAN_POINT('',(4.588787341191E+03,112.65858189222,400.));
#913 = DIRECTION('',(0.553739029938,-0.832690270583,0.));
#914 = DIRECTION('',(-0.832690270583,-0.553739029938,0.));
#915 = PLANE('',#916);
#916 = AXIS2_PLACEMENT_3D('',#917,#918,#919);
#917 = CARTESIAN_POINT('',(4.588787341191E+03,112.65858189222,400.));
#918 = DIRECTION('',(-0.553739029938,0.832690270583,-1.705720018944E-16)
  );
#919 = DIRECTION('',(0.832690270583,0.553739029938,1.17165892568E-33));
#920 = ADVANCED_FACE('',(#921),#933,.F.);
#921 = FACE_BOUND('',#922,.F.);
#922 = EDGE_LOOP('',(#923,#930,#931,#932));
#923 = ORIENTED_EDGE('',*,*,#924,.T.);
#924 = EDGE_CURVE('',#888,#908,#925,.T.);
#925 = CIRCLE('',#926,252.44999999999);
#926 = AXIS2_PLACEMENT_3D('',#927,#928,#929);
#927 = CARTESIAN_POINT('',(4.799E+03,252.44999999999,480.75));
#928 = DIRECTION('',(0.,-0.,-1.));
#929 = DIRECTION('',(3.60267261546E-15,-1.,0.));
#930 = ORIENTED_EDGE('',*,*,#907,.T.);
#931 = ORIENTED_EDGE('',*,*,#924,.F.);
#932 = ORIENTED_EDGE('',*,*,#887,.F.);
#933 = TOROIDAL_SURFACE('',#934,252.44999999999,80.75);
#934 = AXIS2_PLACEMENT_3D('',#935,#936,#937);
#935 = CARTESIAN_POINT('',(4.799E+03,252.44999999999,400.));
#936 = DIRECTION('',(-0.,-0.,-1.));
#937 = DIRECTION('',(3.60267261546E-15,-1.,0.));
#938 = MANIFOLD_SOLID_BREP('',#939);
#939 = CLOSED_SHELL('',(#940,#973,#993,#1013));
#940 = ADVANCED_FACE('',(#941),#968,.T.);
#941 = FACE_BOUND('',#942,.T.);
#942 = EDGE_LOOP('',(#943,#952,#960,#967));
#943 = ORIENTED_EDGE('',*,*,#944,.F.);
#944 = EDGE_CURVE('',#945,#945,#947,.T.);
#945 = VERTEX_POINT('',#946);
#946 = CARTESIAN_POINT('',(4.37626118123E+03,584.2136855181,400.));
#947 = CIRCLE('',#948,84.15);
#948 = AXIS2_PLACEMENT_3D('',#949,#950,#951);
#949 = CARTESIAN_POINT('',(4.306190294961E+03,537.61654614884,400.));
#950 = DIRECTION('',(-0.553739029938,0.832690270583,0.));
#951 = DIRECTION('',(0.832690270583,0.553739029938,0.));
#952 = ORIENTED_EDGE('',*,*,#953,.F.);
#953 = EDGE_CURVE('',#954,#945,#956,.T.);
#954 = VERTEX_POINT('',#955);
#955 = CARTESIAN_POINT('',(4.658858227461E+03,159.25572126148,400.));
#956 = LINE('',#957,#958);
#957 = CARTESIAN_POINT('',(4.658858227461E+03,159.25572126148,400.));
#958 = VECTOR('',#959,1.);
#959 = DIRECTION('',(-0.553739029938,0.832690270583,1.408782408248E-32)
  );
#960 = ORIENTED_EDGE('',*,*,#961,.T.);
#961 = EDGE_CURVE('',#954,#954,#962,.T.);
#962 = CIRCLE('',#963,84.15);
#963 = AXIS2_PLACEMENT_3D('',#964,#965,#966);
#964 = CARTESIAN_POINT('',(4.588787341191E+03,112.65858189222,400.));
#965 = DIRECTION('',(-0.553739029938,0.832690270583,0.));
#966 = DIRECTION('',(0.832690270583,0.553739029938,0.));
#967 = ORIENTED_EDGE('',*,*,#953,.T.);
#968 = CYLINDRICAL_SURFACE('',#969,84.15);
#969 = AXIS2_PLACEMENT_3D('',#970,#971,#972);
#970 = CARTESIAN_POINT('',(4.588787341191E+03,112.65858189222,400.));
#971 = DIRECTION('',(-0.553739029938,0.832690270583,0.));
#972 = DIRECTION('',(0.832690270583,0.553739029938,0.));
#973 = ADVANCED_FACE('',(#974,#977),#988,.T.);
#974 = FACE_BOUND('',#975,.T.);
#975 = EDGE_LOOP('',(#976));
#976 = ORIENTED_EDGE('',*,*,#944,.T.);
#977 = FACE_BOUND('',#978,.T.);
#978 = EDGE_LOOP('',(#979));
#979 = ORIENTED_EDGE('',*,*,#980,.F.);
#980 = EDGE_CURVE('',#981,#981,#983,.T.);
#981 = VERTEX_POINT('',#982);
#982 = CARTESIAN_POINT('',(4.37343003431E+03,582.33097281631,400.));
#983 = CIRCLE('',#984,80.75);
#984 = AXIS2_PLACEMENT_3D('',#985,#986,#987);
#985 = CARTESIAN_POINT('',(4.306190294961E+03,537.61654614884,400.));
#986 = DIRECTION('',(-0.553739029938,0.832690270583,0.));
#987 = DIRECTION('',(0.832690270583,0.553739029938,0.));
#988 = PLANE('',#989);
#989 = AXIS2_PLACEMENT_3D('',#990,#991,#992);
#990 = CARTESIAN_POINT('',(4.306190294961E+03,537.61654614884,400.));
#991 = DIRECTION('',(-0.553739029938,0.832690270583,0.));
#992 = DIRECTION('',(0.832690270583,0.553739029938,0.));
#993 = ADVANCED_FACE('',(#994,#997),#1008,.F.);
#994 = FACE_BOUND('',#995,.F.);
#995 = EDGE_LOOP('',(#996));
#996 = ORIENTED_EDGE('',*,*,#961,.T.);
#997 = FACE_BOUND('',#998,.F.);
#998 = EDGE_LOOP('',(#999));
#999 = ORIENTED_EDGE('',*,*,#1000,.F.);
#1000 = EDGE_CURVE('',#1001,#1001,#1003,.T.);
#1001 = VERTEX_POINT('',#1002);
#1002 = CARTESIAN_POINT('',(4.656027080541E+03,157.37300855969,400.));
#1003 = CIRCLE('',#1004,80.75);
#1004 = AXIS2_PLACEMENT_3D('',#1005,#1006,#1007);
#1005 = CARTESIAN_POINT('',(4.588787341191E+03,112.65858189222,400.));
#1006 = DIRECTION('',(-0.553739029938,0.832690270583,0.));
#1007 = DIRECTION('',(0.832690270583,0.553739029938,0.));
#1008 = PLANE('',#1009);
#1009 = AXIS2_PLACEMENT_3D('',#1010,#1011,#1012);
#1010 = CARTESIAN_POINT('',(4.588787341191E+03,112.65858189222,400.));
#1011 = DIRECTION('',(-0.553739029938,0.832690270583,0.));
#1012 = DIRECTION('',(0.832690270583,0.553739029938,0.));
#1013 = ADVANCED_FACE('',(#1014),#1025,.F.);
#1014 = FACE_BOUND('',#1015,.F.);
#1015 = EDGE_LOOP('',(#1016,#1017,#1023,#1024));
#1016 = ORIENTED_EDGE('',*,*,#980,.F.);
#1017 = ORIENTED_EDGE('',*,*,#1018,.F.);
#1018 = EDGE_CURVE('',#1001,#981,#1019,.T.);
#1019 = LINE('',#1020,#1021);
#1020 = CARTESIAN_POINT('',(4.656027080541E+03,157.37300855969,400.));
#1021 = VECTOR('',#1022,1.);
#1022 = DIRECTION('',(-0.553739029938,0.832690270583,1.408782408248E-32)
  );
#1023 = ORIENTED_EDGE('',*,*,#1000,.T.);
#1024 = ORIENTED_EDGE('',*,*,#1018,.T.);
#1025 = CYLINDRICAL_SURFACE('',#1026,80.75);
#1026 = AXIS2_PLACEMENT_3D('',#1027,#1028,#1029);
#1027 = CARTESIAN_POINT('',(4.588787341191E+03,112.65858189222,400.));
#1028 = DIRECTION('',(-0.553739029938,0.832690270583,0.));
#1029 = DIRECTION('',(0.832690270583,0.553739029938,0.));
#1030 = MANIFOLD_SOLID_BREP('',#1031);
#1031 = CLOSED_SHELL('',(#1032,#1066,#1086,#1106));
#1032 = ADVANCED_FACE('',(#1033),#1061,.T.);
#1033 = FACE_BOUND('',#1034,.T.);
#1034 = EDGE_LOOP('',(#1035,#1046,#1053,#1054));
#1035 = ORIENTED_EDGE('',*,*,#1036,.T.);
#1036 = EDGE_CURVE('',#1037,#1039,#1041,.T.);
#1037 = VERTEX_POINT('',#1038);
#1038 = CARTESIAN_POINT('',(4.37626118123E+03,584.2136855181,400.));
#1039 = VERTEX_POINT('',#1040);
#1040 = CARTESIAN_POINT('',(4.100257244572E+03,734.39792098751,400.));
#1041 = CIRCLE('',#1042,336.59999999999);
#1042 = AXIS2_PLACEMENT_3D('',#1043,#1044,#1045);
#1043 = CARTESIAN_POINT('',(4.095977636152E+03,397.82512804106,400.));
#1044 = DIRECTION('',(0.,-0.,1.));
#1045 = DIRECTION('',(0.832690270583,0.553739029938,0.));
#1046 = ORIENTED_EDGE('',*,*,#1047,.T.);
#1047 = EDGE_CURVE('',#1039,#1039,#1048,.T.);
#1048 = CIRCLE('',#1049,84.15);
#1049 = AXIS2_PLACEMENT_3D('',#1050,#1051,#1052);
#1050 = CARTESIAN_POINT('',(4.099187342467E+03,650.2547227509,400.));
#1051 = DIRECTION('',(0.999919170964,-1.271422584664E-02,0.));
#1052 = DIRECTION('',(1.271422584664E-02,0.999919170964,0.));
#1053 = ORIENTED_EDGE('',*,*,#1036,.F.);
#1054 = ORIENTED_EDGE('',*,*,#1055,.F.);
#1055 = EDGE_CURVE('',#1037,#1037,#1056,.T.);
#1056 = CIRCLE('',#1057,84.15);
#1057 = AXIS2_PLACEMENT_3D('',#1058,#1059,#1060);
#1058 = CARTESIAN_POINT('',(4.306190294961E+03,537.61654614884,400.));
#1059 = DIRECTION('',(0.553739029938,-0.832690270583,0.));
#1060 = DIRECTION('',(0.832690270583,0.553739029938,0.));
#1061 = TOROIDAL_SURFACE('',#1062,252.44999999999,84.15);
#1062 = AXIS2_PLACEMENT_3D('',#1063,#1064,#1065);
#1063 = CARTESIAN_POINT('',(4.095977636152E+03,397.82512804106,400.));
#1064 = DIRECTION('',(0.,0.,1.));
#1065 = DIRECTION('',(0.832690270583,0.553739029938,0.));
#1066 = ADVANCED_FACE('',(#1067,#1070),#1081,.F.);
#1067 = FACE_BOUND('',#1068,.F.);
#1068 = EDGE_LOOP('',(#1069));
#1069 = ORIENTED_EDGE('',*,*,#1055,.F.);
#1070 = FACE_BOUND('',#1071,.F.);
#1071 = EDGE_LOOP('',(#1072));
#1072 = ORIENTED_EDGE('',*,*,#1073,.T.);
#1073 = EDGE_CURVE('',#1074,#1074,#1076,.T.);
#1074 = VERTEX_POINT('',#1075);
#1075 = CARTESIAN_POINT('',(4.37343003431E+03,582.33097281631,400.));
#1076 = CIRCLE('',#1077,80.75);
#1077 = AXIS2_PLACEMENT_3D('',#1078,#1079,#1080);
#1078 = CARTESIAN_POINT('',(4.306190294961E+03,537.61654614884,400.));
#1079 = DIRECTION('',(0.553739029938,-0.832690270583,0.));
#1080 = DIRECTION('',(0.832690270583,0.553739029938,0.));
#1081 = PLANE('',#1082);
#1082 = AXIS2_PLACEMENT_3D('',#1083,#1084,#1085);
#1083 = CARTESIAN_POINT('',(4.306190294961E+03,537.61654614884,400.));
#1084 = DIRECTION('',(-0.553739029938,0.832690270583,3.448916637351E-15)
  );
#1085 = DIRECTION('',(0.832690270583,0.553739029938,6.787384769463E-32)
  );
#1086 = ADVANCED_FACE('',(#1087,#1090),#1101,.T.);
#1087 = FACE_BOUND('',#1088,.T.);
#1088 = EDGE_LOOP('',(#1089));
#1089 = ORIENTED_EDGE('',*,*,#1047,.F.);
#1090 = FACE_BOUND('',#1091,.T.);
#1091 = EDGE_LOOP('',(#1092));
#1092 = ORIENTED_EDGE('',*,*,#1093,.T.);
#1093 = EDGE_CURVE('',#1094,#1094,#1096,.T.);
#1094 = VERTEX_POINT('',#1095);
#1095 = CARTESIAN_POINT('',(4.100214016204E+03,730.99819580623,400.));
#1096 = CIRCLE('',#1097,80.75);
#1097 = AXIS2_PLACEMENT_3D('',#1098,#1099,#1100);
#1098 = CARTESIAN_POINT('',(4.099187342467E+03,650.2547227509,400.));
#1099 = DIRECTION('',(0.999919170964,-1.271422584664E-02,0.));
#1100 = DIRECTION('',(1.271422584664E-02,0.999919170964,0.));
#1101 = PLANE('',#1102);
#1102 = AXIS2_PLACEMENT_3D('',#1103,#1104,#1105);
#1103 = CARTESIAN_POINT('',(4.099187342467E+03,650.2547227509,400.));
#1104 = DIRECTION('',(-0.999919170964,1.271422584664E-02,0.));
#1105 = DIRECTION('',(-1.271422584664E-02,-0.999919170964,0.));
#1106 = ADVANCED_FACE('',(#1107),#1119,.F.);
#1107 = FACE_BOUND('',#1108,.F.);
#1108 = EDGE_LOOP('',(#1109,#1116,#1117,#1118));
#1109 = ORIENTED_EDGE('',*,*,#1110,.T.);
#1110 = EDGE_CURVE('',#1074,#1094,#1111,.T.);
#1111 = CIRCLE('',#1112,333.19999999999);
#1112 = AXIS2_PLACEMENT_3D('',#1113,#1114,#1115);
#1113 = CARTESIAN_POINT('',(4.095977636152E+03,397.82512804106,400.));
#1114 = DIRECTION('',(0.,-0.,1.));
#1115 = DIRECTION('',(0.832690270583,0.553739029938,0.));
#1116 = ORIENTED_EDGE('',*,*,#1093,.T.);
#1117 = ORIENTED_EDGE('',*,*,#1110,.F.);
#1118 = ORIENTED_EDGE('',*,*,#1073,.F.);
#1119 = TOROIDAL_SURFACE('',#1120,252.44999999999,80.75);
#1120 = AXIS2_PLACEMENT_3D('',#1121,#1122,#1123);
#1121 = CARTESIAN_POINT('',(4.095977636152E+03,397.82512804106,400.));
#1122 = DIRECTION('',(0.,0.,1.));
#1123 = DIRECTION('',(0.832690270583,0.553739029938,0.));
#1124 = MANIFOLD_SOLID_BREP('',#1125);
#1125 = CLOSED_SHELL('',(#1126,#1159,#1179,#1199));
#1126 = ADVANCED_FACE('',(#1127),#1154,.T.);
#1127 = FACE_BOUND('',#1128,.T.);
#1128 = EDGE_LOOP('',(#1129,#1138,#1146,#1153));
#1129 = ORIENTED_EDGE('',*,*,#1130,.F.);
#1130 = EDGE_CURVE('',#1131,#1131,#1133,.T.);
#1131 = VERTEX_POINT('',#1132);
#1132 = CARTESIAN_POINT('',(-599.6713729903,625.84510067444,400.));
#1133 = CIRCLE('',#1134,84.15);
#1134 = AXIS2_PLACEMENT_3D('',#1135,#1136,#1137);
#1135 = CARTESIAN_POINT('',(-598.6014708853,709.98829891105,400.));
#1136 = DIRECTION('',(-0.999919170964,1.271422584664E-02,0.));
#1137 = DIRECTION('',(-1.271422584664E-02,-0.999919170964,0.));
#1138 = ORIENTED_EDGE('',*,*,#1139,.F.);
#1139 = EDGE_CURVE('',#1140,#1131,#1142,.T.);
#1140 = VERTEX_POINT('',#1141);
#1141 = CARTESIAN_POINT('',(4.098117440362E+03,566.11152451428,400.));
#1142 = LINE('',#1143,#1144);
#1143 = CARTESIAN_POINT('',(4.098117440362E+03,566.11152451428,400.));
#1144 = VECTOR('',#1145,1.);
#1145 = DIRECTION('',(-0.999919170964,1.271422584664E-02,
    -1.252814695891E-35));
#1146 = ORIENTED_EDGE('',*,*,#1147,.T.);
#1147 = EDGE_CURVE('',#1140,#1140,#1148,.T.);
#1148 = CIRCLE('',#1149,84.15);
#1149 = AXIS2_PLACEMENT_3D('',#1150,#1151,#1152);
#1150 = CARTESIAN_POINT('',(4.099187342467E+03,650.2547227509,400.));
#1151 = DIRECTION('',(-0.999919170964,1.271422584664E-02,0.));
#1152 = DIRECTION('',(-1.271422584664E-02,-0.999919170964,0.));
#1153 = ORIENTED_EDGE('',*,*,#1139,.T.);
#1154 = CYLINDRICAL_SURFACE('',#1155,84.15);
#1155 = AXIS2_PLACEMENT_3D('',#1156,#1157,#1158);
#1156 = CARTESIAN_POINT('',(4.099187342467E+03,650.2547227509,400.));
#1157 = DIRECTION('',(-0.999919170964,1.271422584664E-02,0.));
#1158 = DIRECTION('',(-1.271422584664E-02,-0.999919170964,0.));
#1159 = ADVANCED_FACE('',(#1160,#1163),#1174,.T.);
#1160 = FACE_BOUND('',#1161,.T.);
#1161 = EDGE_LOOP('',(#1162));
#1162 = ORIENTED_EDGE('',*,*,#1130,.T.);
#1163 = FACE_BOUND('',#1164,.T.);
#1164 = EDGE_LOOP('',(#1165));
#1165 = ORIENTED_EDGE('',*,*,#1166,.F.);
#1166 = EDGE_CURVE('',#1167,#1167,#1169,.T.);
#1167 = VERTEX_POINT('',#1168);
#1168 = CARTESIAN_POINT('',(-599.6281446225,629.24482585572,400.));
#1169 = CIRCLE('',#1170,80.75);
#1170 = AXIS2_PLACEMENT_3D('',#1171,#1172,#1173);
#1171 = CARTESIAN_POINT('',(-598.6014708853,709.98829891105,400.));
#1172 = DIRECTION('',(-0.999919170964,1.271422584664E-02,0.));
#1173 = DIRECTION('',(-1.271422584664E-02,-0.999919170964,0.));
#1174 = PLANE('',#1175);
#1175 = AXIS2_PLACEMENT_3D('',#1176,#1177,#1178);
#1176 = CARTESIAN_POINT('',(-598.6014708853,709.98829891105,400.));
#1177 = DIRECTION('',(-0.999919170964,1.271422584664E-02,0.));
#1178 = DIRECTION('',(-1.271422584664E-02,-0.999919170964,0.));
#1179 = ADVANCED_FACE('',(#1180,#1183),#1194,.F.);
#1180 = FACE_BOUND('',#1181,.F.);
#1181 = EDGE_LOOP('',(#1182));
#1182 = ORIENTED_EDGE('',*,*,#1147,.T.);
#1183 = FACE_BOUND('',#1184,.F.);
#1184 = EDGE_LOOP('',(#1185));
#1185 = ORIENTED_EDGE('',*,*,#1186,.F.);
#1186 = EDGE_CURVE('',#1187,#1187,#1189,.T.);
#1187 = VERTEX_POINT('',#1188);
#1188 = CARTESIAN_POINT('',(4.09816066873E+03,569.51124969556,400.));
#1189 = CIRCLE('',#1190,80.75);
#1190 = AXIS2_PLACEMENT_3D('',#1191,#1192,#1193);
#1191 = CARTESIAN_POINT('',(4.099187342467E+03,650.2547227509,400.));
#1192 = DIRECTION('',(-0.999919170964,1.271422584664E-02,0.));
#1193 = DIRECTION('',(-1.271422584664E-02,-0.999919170964,0.));
#1194 = PLANE('',#1195);
#1195 = AXIS2_PLACEMENT_3D('',#1196,#1197,#1198);
#1196 = CARTESIAN_POINT('',(4.099187342467E+03,650.2547227509,400.));
#1197 = DIRECTION('',(-0.999919170964,1.271422584664E-02,0.));
#1198 = DIRECTION('',(-1.271422584664E-02,-0.999919170964,0.));
#1199 = ADVANCED_FACE('',(#1200),#1211,.F.);
#1200 = FACE_BOUND('',#1201,.F.);
#1201 = EDGE_LOOP('',(#1202,#1203,#1209,#1210));
#1202 = ORIENTED_EDGE('',*,*,#1166,.F.);
#1203 = ORIENTED_EDGE('',*,*,#1204,.F.);
#1204 = EDGE_CURVE('',#1187,#1167,#1205,.T.);
#1205 = LINE('',#1206,#1207);
#1206 = CARTESIAN_POINT('',(4.09816066873E+03,569.51124969556,400.));
#1207 = VECTOR('',#1208,1.);
#1208 = DIRECTION('',(-0.999919170964,1.271422584664E-02,
    -1.252814695891E-35));
#1209 = ORIENTED_EDGE('',*,*,#1186,.T.);
#1210 = ORIENTED_EDGE('',*,*,#1204,.T.);
#1211 = CYLINDRICAL_SURFACE('',#1212,80.75);
#1212 = AXIS2_PLACEMENT_3D('',#1213,#1214,#1215);
#1213 = CARTESIAN_POINT('',(4.099187342467E+03,650.2547227509,400.));
#1214 = DIRECTION('',(-0.999919170964,1.271422584664E-02,0.));
#1215 = DIRECTION('',(-1.271422584664E-02,-0.999919170964,0.));
#1216 = MANIFOLD_SOLID_BREP('',#1217);
#1217 = CLOSED_SHELL('',(#1218,#1252,#1272,#1292));
#1218 = ADVANCED_FACE('',(#1219),#1247,.T.);
#1219 = FACE_BOUND('',#1220,.T.);
#1220 = EDGE_LOOP('',(#1221,#1232,#1239,#1240));
#1221 = ORIENTED_EDGE('',*,*,#1222,.T.);
#1222 = EDGE_CURVE('',#1223,#1225,#1227,.T.);
#1223 = VERTEX_POINT('',#1224);
#1224 = CARTESIAN_POINT('',(-597.5315687804,794.13149714766,400.));
#1225 = VERTEX_POINT('',#1226);
#1226 = CARTESIAN_POINT('',(-938.4105241848,458.22173482783,400.));
#1227 = CIRCLE('',#1228,336.6);
#1228 = AXIS2_PLACEMENT_3D('',#1229,#1230,#1231);
#1229 = CARTESIAN_POINT('',(-601.8111772003,457.55870420122,400.));
#1230 = DIRECTION('',(0.,-0.,1.));
#1231 = DIRECTION('',(1.271422584664E-02,0.999919170964,0.));
#1232 = ORIENTED_EDGE('',*,*,#1233,.T.);
#1233 = EDGE_CURVE('',#1225,#1225,#1234,.T.);
#1234 = CIRCLE('',#1235,84.15);
#1235 = AXIS2_PLACEMENT_3D('',#1236,#1237,#1238);
#1236 = CARTESIAN_POINT('',(-854.2606874387,458.05597717118,400.));
#1237 = DIRECTION('',(1.969787957849E-03,0.999998059966,-0.));
#1238 = DIRECTION('',(-0.999998059966,1.969787957849E-03,0.));
#1239 = ORIENTED_EDGE('',*,*,#1222,.F.);
#1240 = ORIENTED_EDGE('',*,*,#1241,.F.);
#1241 = EDGE_CURVE('',#1223,#1223,#1242,.T.);
#1242 = CIRCLE('',#1243,84.15);
#1243 = AXIS2_PLACEMENT_3D('',#1244,#1245,#1246);
#1244 = CARTESIAN_POINT('',(-598.6014708853,709.98829891105,400.));
#1245 = DIRECTION('',(0.999919170964,-1.271422584664E-02,0.));
#1246 = DIRECTION('',(1.271422584664E-02,0.999919170964,0.));
#1247 = TOROIDAL_SURFACE('',#1248,252.45,84.15);
#1248 = AXIS2_PLACEMENT_3D('',#1249,#1250,#1251);
#1249 = CARTESIAN_POINT('',(-601.8111772003,457.55870420122,400.));
#1250 = DIRECTION('',(0.,0.,1.));
#1251 = DIRECTION('',(1.271422584664E-02,0.999919170964,0.));
#1252 = ADVANCED_FACE('',(#1253,#1256),#1267,.F.);
#1253 = FACE_BOUND('',#1254,.F.);
#1254 = EDGE_LOOP('',(#1255));
#1255 = ORIENTED_EDGE('',*,*,#1241,.F.);
#1256 = FACE_BOUND('',#1257,.F.);
#1257 = EDGE_LOOP('',(#1258));
#1258 = ORIENTED_EDGE('',*,*,#1259,.T.);
#1259 = EDGE_CURVE('',#1260,#1260,#1262,.T.);
#1260 = VERTEX_POINT('',#1261);
#1261 = CARTESIAN_POINT('',(-597.5747971482,790.73177196639,400.));
#1262 = CIRCLE('',#1263,80.75);
#1263 = AXIS2_PLACEMENT_3D('',#1264,#1265,#1266);
#1264 = CARTESIAN_POINT('',(-598.6014708853,709.98829891105,400.));
#1265 = DIRECTION('',(0.999919170964,-1.271422584664E-02,0.));
#1266 = DIRECTION('',(1.271422584664E-02,0.999919170964,0.));
#1267 = PLANE('',#1268);
#1268 = AXIS2_PLACEMENT_3D('',#1269,#1270,#1271);
#1269 = CARTESIAN_POINT('',(-598.6014708853,709.98829891105,400.));
#1270 = DIRECTION('',(-0.999919170964,1.271422584664E-02,0.));
#1271 = DIRECTION('',(-1.271422584664E-02,-0.999919170964,0.));
#1272 = ADVANCED_FACE('',(#1273,#1276),#1287,.T.);
#1273 = FACE_BOUND('',#1274,.T.);
#1274 = EDGE_LOOP('',(#1275));
#1275 = ORIENTED_EDGE('',*,*,#1233,.F.);
#1276 = FACE_BOUND('',#1277,.T.);
#1277 = EDGE_LOOP('',(#1278));
#1278 = ORIENTED_EDGE('',*,*,#1279,.T.);
#1279 = EDGE_CURVE('',#1280,#1280,#1282,.T.);
#1280 = VERTEX_POINT('',#1281);
#1281 = CARTESIAN_POINT('',(-935.0105307809,458.21503754877,400.));
#1282 = CIRCLE('',#1283,80.75);
#1283 = AXIS2_PLACEMENT_3D('',#1284,#1285,#1286);
#1284 = CARTESIAN_POINT('',(-854.2606874387,458.05597717118,400.));
#1285 = DIRECTION('',(1.969787957849E-03,0.999998059966,-0.));
#1286 = DIRECTION('',(-0.999998059966,1.969787957849E-03,0.));
#1287 = PLANE('',#1288);
#1288 = AXIS2_PLACEMENT_3D('',#1289,#1290,#1291);
#1289 = CARTESIAN_POINT('',(-854.2606874387,458.05597717118,400.));
#1290 = DIRECTION('',(-1.96978795785E-03,-0.999998059966,-0.));
#1291 = DIRECTION('',(-0.999998059966,1.96978795785E-03,0.));
#1292 = ADVANCED_FACE('',(#1293),#1305,.F.);
#1293 = FACE_BOUND('',#1294,.F.);
#1294 = EDGE_LOOP('',(#1295,#1302,#1303,#1304));
#1295 = ORIENTED_EDGE('',*,*,#1296,.T.);
#1296 = EDGE_CURVE('',#1260,#1280,#1297,.T.);
#1297 = CIRCLE('',#1298,333.2);
#1298 = AXIS2_PLACEMENT_3D('',#1299,#1300,#1301);
#1299 = CARTESIAN_POINT('',(-601.8111772003,457.55870420122,400.));
#1300 = DIRECTION('',(0.,-0.,1.));
#1301 = DIRECTION('',(1.271422584664E-02,0.999919170964,0.));
#1302 = ORIENTED_EDGE('',*,*,#1279,.T.);
#1303 = ORIENTED_EDGE('',*,*,#1296,.F.);
#1304 = ORIENTED_EDGE('',*,*,#1259,.F.);
#1305 = TOROIDAL_SURFACE('',#1306,252.45,80.75);
#1306 = AXIS2_PLACEMENT_3D('',#1307,#1308,#1309);
#1307 = CARTESIAN_POINT('',(-601.8111772003,457.55870420122,400.));
#1308 = DIRECTION('',(0.,0.,1.));
#1309 = DIRECTION('',(1.271422584664E-02,0.999919170964,0.));
#1310 = MANIFOLD_SOLID_BREP('',#1311);
#1311 = CLOSED_SHELL('',(#1312,#1345,#1365,#1385));
#1312 = ADVANCED_FACE('',(#1313),#1340,.T.);
#1313 = FACE_BOUND('',#1314,.T.);
#1314 = EDGE_LOOP('',(#1315,#1324,#1332,#1339));
#1315 = ORIENTED_EDGE('',*,*,#1316,.F.);
#1316 = EDGE_CURVE('',#1317,#1317,#1319,.T.);
#1317 = VERTEX_POINT('',#1318);
#1318 = CARTESIAN_POINT('',(-939.3118090343,0.668373612059,400.));
#1319 = CIRCLE('',#1320,84.15);
#1320 = AXIS2_PLACEMENT_3D('',#1321,#1322,#1323);
#1321 = CARTESIAN_POINT('',(-855.1619722882,0.502615955406,400.));
#1322 = DIRECTION('',(-1.969787957849E-03,-0.999998059966,-0.));
#1323 = DIRECTION('',(-0.999998059966,1.969787957849E-03,0.));
#1324 = ORIENTED_EDGE('',*,*,#1325,.F.);
#1325 = EDGE_CURVE('',#1326,#1317,#1328,.T.);
#1326 = VERTEX_POINT('',#1327);
#1327 = CARTESIAN_POINT('',(-938.4105241848,458.22173482783,400.));
#1328 = LINE('',#1329,#1330);
#1329 = CARTESIAN_POINT('',(-938.4105241848,458.22173482783,400.));
#1330 = VECTOR('',#1331,1.);
#1331 = DIRECTION('',(-1.969787957849E-03,-0.999998059966,
    9.467515711553E-35));
#1332 = ORIENTED_EDGE('',*,*,#1333,.T.);
#1333 = EDGE_CURVE('',#1326,#1326,#1334,.T.);
#1334 = CIRCLE('',#1335,84.15);
#1335 = AXIS2_PLACEMENT_3D('',#1336,#1337,#1338);
#1336 = CARTESIAN_POINT('',(-854.2606874387,458.05597717118,400.));
#1337 = DIRECTION('',(-1.969787957849E-03,-0.999998059966,-0.));
#1338 = DIRECTION('',(-0.999998059966,1.969787957849E-03,0.));
#1339 = ORIENTED_EDGE('',*,*,#1325,.T.);
#1340 = CYLINDRICAL_SURFACE('',#1341,84.15);
#1341 = AXIS2_PLACEMENT_3D('',#1342,#1343,#1344);
#1342 = CARTESIAN_POINT('',(-854.2606874387,458.05597717118,400.));
#1343 = DIRECTION('',(-1.969787957849E-03,-0.999998059966,0.));
#1344 = DIRECTION('',(-0.999998059966,1.969787957849E-03,0.));
#1345 = ADVANCED_FACE('',(#1346,#1349),#1360,.T.);
#1346 = FACE_BOUND('',#1347,.T.);
#1347 = EDGE_LOOP('',(#1348));
#1348 = ORIENTED_EDGE('',*,*,#1316,.T.);
#1349 = FACE_BOUND('',#1350,.T.);
#1350 = EDGE_LOOP('',(#1351));
#1351 = ORIENTED_EDGE('',*,*,#1352,.F.);
#1352 = EDGE_CURVE('',#1353,#1353,#1355,.T.);
#1353 = VERTEX_POINT('',#1354);
#1354 = CARTESIAN_POINT('',(-935.9118156305,0.661676333003,400.));
#1355 = CIRCLE('',#1356,80.75);
#1356 = AXIS2_PLACEMENT_3D('',#1357,#1358,#1359);
#1357 = CARTESIAN_POINT('',(-855.1619722882,0.502615955406,400.));
#1358 = DIRECTION('',(-1.969787957849E-03,-0.999998059966,-0.));
#1359 = DIRECTION('',(-0.999998059966,1.969787957849E-03,0.));
#1360 = PLANE('',#1361);
#1361 = AXIS2_PLACEMENT_3D('',#1362,#1363,#1364);
#1362 = CARTESIAN_POINT('',(-855.1619722882,0.502615955406,400.));
#1363 = DIRECTION('',(-1.969787957849E-03,-0.999998059966,0.));
#1364 = DIRECTION('',(-0.999998059966,1.969787957849E-03,0.));
#1365 = ADVANCED_FACE('',(#1366,#1369),#1380,.F.);
#1366 = FACE_BOUND('',#1367,.F.);
#1367 = EDGE_LOOP('',(#1368));
#1368 = ORIENTED_EDGE('',*,*,#1333,.T.);
#1369 = FACE_BOUND('',#1370,.F.);
#1370 = EDGE_LOOP('',(#1371));
#1371 = ORIENTED_EDGE('',*,*,#1372,.F.);
#1372 = EDGE_CURVE('',#1373,#1373,#1375,.T.);
#1373 = VERTEX_POINT('',#1374);
#1374 = CARTESIAN_POINT('',(-935.0105307809,458.21503754877,400.));
#1375 = CIRCLE('',#1376,80.75);
#1376 = AXIS2_PLACEMENT_3D('',#1377,#1378,#1379);
#1377 = CARTESIAN_POINT('',(-854.2606874387,458.05597717118,400.));
#1378 = DIRECTION('',(-1.969787957849E-03,-0.999998059966,-0.));
#1379 = DIRECTION('',(-0.999998059966,1.969787957849E-03,0.));
#1380 = PLANE('',#1381);
#1381 = AXIS2_PLACEMENT_3D('',#1382,#1383,#1384);
#1382 = CARTESIAN_POINT('',(-854.2606874387,458.05597717118,400.));
#1383 = DIRECTION('',(-1.969787957849E-03,-0.999998059966,0.));
#1384 = DIRECTION('',(-0.999998059966,1.969787957849E-03,0.));
#1385 = ADVANCED_FACE('',(#1386),#1397,.F.);
#1386 = FACE_BOUND('',#1387,.F.);
#1387 = EDGE_LOOP('',(#1388,#1389,#1395,#1396));
#1388 = ORIENTED_EDGE('',*,*,#1352,.F.);
#1389 = ORIENTED_EDGE('',*,*,#1390,.F.);
#1390 = EDGE_CURVE('',#1373,#1353,#1391,.T.);
#1391 = LINE('',#1392,#1393);
#1392 = CARTESIAN_POINT('',(-935.0105307809,458.21503754877,400.));
#1393 = VECTOR('',#1394,1.);
#1394 = DIRECTION('',(-1.969787957849E-03,-0.999998059966,
    9.467515711553E-35));
#1395 = ORIENTED_EDGE('',*,*,#1372,.T.);
#1396 = ORIENTED_EDGE('',*,*,#1390,.T.);
#1397 = CYLINDRICAL_SURFACE('',#1398,80.75);
#1398 = AXIS2_PLACEMENT_3D('',#1399,#1400,#1401);
#1399 = CARTESIAN_POINT('',(-854.2606874387,458.05597717118,400.));
#1400 = DIRECTION('',(-1.969787957849E-03,-0.999998059966,0.));
#1401 = DIRECTION('',(-0.999998059966,1.969787957849E-03,0.));
#1402 = ( GEOMETRIC_REPRESENTATION_CONTEXT(3) 
GLOBAL_UNCERTAINTY_ASSIGNED_CONTEXT((#1406)) 
GLOBAL_UNIT_ASSIGNED_CONTEXT((#1403,#1404,#1405)) REPRESENTATION_CONTEXT
('Context #1','3D Context with UNIT and UNCERTAINTY') );
#1403 = ( LENGTH_UNIT() NAMED_UNIT(*) SI_UNIT(.MILLI.,.METRE.) );
#1404 = ( NAMED_UNIT(*) PLANE_ANGLE_UNIT() SI_UNIT($,.RADIAN.) );
#1405 = ( NAMED_UNIT(*) SI_UNIT($,.STERADIAN.) SOLID_ANGLE_UNIT() );
#1406 = UNCERTAINTY_MEASURE_WITH_UNIT(LENGTH_MEASURE(1.E-07),#1403,
  'distance_accuracy_value','confusion accuracy');
#1407 = PRODUCT_RELATED_PRODUCT_CATEGORY('part',$,(#7));
ENDSEC;
END-ISO-10303-21;
