solid fanwall_w
 facet normal -1 0 0
  outer loop
   vertex 2 2.1 0
   vertex 2 2.1 4
   vertex 2 6.1 0
  endloop
 endfacet
 facet normal -1 0 0
  outer loop
   vertex 2 6.1 0
   vertex 2 2.1 4
   vertex 2 6.1 4
  endloop
 endfacet
 facet normal 1 0 0
  outer loop
   vertex 3.6 2.1 4
   vertex 3.6 2.1 0
   vertex 3.6 6.1 0
  endloop
 endfacet
 facet normal 1 -0 0
  outer loop
   vertex 3.6 2.1 4
   vertex 3.6 6.1 0
   vertex 3.6 6.1 4
  endloop
 endfacet
 facet normal 0 -1 0
  outer loop
   vertex 3.6 2.1 0
   vertex 3.6 2.1 4
   vertex 2 2.1 0
  endloop
 endfacet
 facet normal 0 -1 0
  outer loop
   vertex 2 2.1 0
   vertex 3.6 2.1 4
   vertex 2 2.1 4
  endloop
 endfacet
 facet normal 0 1 0
  outer loop
   vertex 3.6 6.1 4
   vertex 3.6 6.1 0
   vertex 2 6.1 0
  endloop
 endfacet
 facet normal 0 1 0
  outer loop
   vertex 3.6 6.1 4
   vertex 2 6.1 0
   vertex 2 6.1 4
  endloop
 endfacet
 facet normal 0 0 -1
  outer loop
   vertex 2 6.1 0
   vertex 3.6 6.1 0
   vertex 2 2.1 0
  endloop
 endfacet
 facet normal 0 0 -1
  outer loop
   vertex 2 2.1 0
   vertex 3.6 6.1 0
   vertex 3.6 2.1 0
  endloop
 endfacet
 facet normal 0 0 1
  outer loop
   vertex 3.6 6.1 4
   vertex 2 6.1 4
   vertex 2 2.1 4
  endloop
 endfacet
 facet normal 0 0 1
  outer loop
   vertex 3.6 6.1 4
   vertex 2 2.1 4
   vertex 3.6 2.1 4
  endloop
 endfacet
endsolid fanwall_w
