solid hac_door_w
 facet normal -1 0 0
  outer loop
   vertex 8.335 3.2 0
   vertex 8.335 5 2
   vertex 8.335 5 0
  endloop
 endfacet
 facet normal -1 0 0
  outer loop
   vertex 8.335 3.2 0
   vertex 8.335 3.2 2
   vertex 8.335 5 2
  endloop
 endfacet
 facet normal 1 0 0
  outer loop
   vertex 8.435 5 2
   vertex 8.435 3.2 0
   vertex 8.435 5 0
  endloop
 endfacet
 facet normal 1 -0 0
  outer loop
   vertex 8.435 3.2 2
   vertex 8.435 3.2 0
   vertex 8.435 5 2
  endloop
 endfacet
 facet normal 0 -1 0
  outer loop
   vertex 8.435 3.2 0
   vertex 8.435 3.2 2
   vertex 8.335 3.2 0
  endloop
 endfacet
 facet normal 0 -1 0
  outer loop
   vertex 8.335 3.2 0
   vertex 8.435 3.2 2
   vertex 8.335 3.2 2
  endloop
 endfacet
 facet normal 0 1 0
  outer loop
   vertex 8.435 5 2
   vertex 8.435 5 0
   vertex 8.335 5 0
  endloop
 endfacet
 facet normal 0 1 0
  outer loop
   vertex 8.435 5 2
   vertex 8.335 5 0
   vertex 8.335 5 2
  endloop
 endfacet
 facet normal 0 0 -1
  outer loop
   vertex 8.335 5 0
   vertex 8.435 5 0
   vertex 8.335 3.2 0
  endloop
 endfacet
 facet normal 0 0 -1
  outer loop
   vertex 8.335 3.2 0
   vertex 8.435 5 0
   vertex 8.435 3.2 0
  endloop
 endfacet
 facet normal 0 0 1
  outer loop
   vertex 8.435 5 2
   vertex 8.335 5 2
   vertex 8.335 3.2 2
  endloop
 endfacet
 facet normal 0 0 1
  outer loop
   vertex 8.435 5 2
   vertex 8.335 3.2 2
   vertex 8.435 3.2 2
  endloop
 endfacet
endsolid hac_door_w
solid hac_door_e
 facet normal -1 0 0
  outer loop
   vertex 15.755 3.2 0
   vertex 15.755 5 2
   vertex 15.755 5 0
  endloop
 endfacet
 facet normal -1 0 0
  outer loop
   vertex 15.755 3.2 0
   vertex 15.755 3.2 2
   vertex 15.755 5 2
  endloop
 endfacet
 facet normal 1 0 0
  outer loop
   vertex 15.855 5 2
   vertex 15.855 3.2 0
   vertex 15.855 5 0
  endloop
 endfacet
 facet normal 1 -0 0
  outer loop
   vertex 15.855 3.2 2
   vertex 15.855 3.2 0
   vertex 15.855 5 2
  endloop
 endfacet
 facet normal 0 -1 0
  outer loop
   vertex 15.855 3.2 0
   vertex 15.855 3.2 2
   vertex 15.755 3.2 0
  endloop
 endfacet
 facet normal 0 -1 0
  outer loop
   vertex 15.755 3.2 0
   vertex 15.855 3.2 2
   vertex 15.755 3.2 2
  endloop
 endfacet
 facet normal 0 1 0
  outer loop
   vertex 15.855 5 2
   vertex 15.855 5 0
   vertex 15.755 5 0
  endloop
 endfacet
 facet normal 0 1 0
  outer loop
   vertex 15.855 5 2
   vertex 15.755 5 0
   vertex 15.755 5 2
  endloop
 endfacet
 facet normal 0 0 -1
  outer loop
   vertex 15.755 5 0
   vertex 15.855 5 0
   vertex 15.755 3.2 0
  endloop
 endfacet
 facet normal 0 0 -1
  outer loop
   vertex 15.755 3.2 0
   vertex 15.855 5 0
   vertex 15.855 3.2 0
  endloop
 endfacet
 facet normal 0 0 1
  outer loop
   vertex 15.855 5 2
   vertex 15.755 5 2
   vertex 15.755 3.2 2
  endloop
 endfacet
 facet normal 0 0 1
  outer loop
   vertex 15.855 5 2
   vertex 15.755 3.2 2
   vertex 15.855 3.2 2
  endloop
 endfacet
endsolid hac_door_e
solid hac_baffle_a
 facet normal -1 0 0
  outer loop
   vertex 8.435 3.2 2
   vertex 8.435 3.3 3.96
   vertex 8.435 3.3 2
  endloop
 endfacet
 facet normal -1 0 0
  outer loop
   vertex 8.435 3.2 2
   vertex 8.435 3.2 3.96
   vertex 8.435 3.3 3.96
  endloop
 endfacet
 facet normal 1 0 0
  outer loop
   vertex 15.755 3.3 3.96
   vertex 15.755 3.2 2
   vertex 15.755 3.3 2
  endloop
 endfacet
 facet normal 1 -0 0
  outer loop
   vertex 15.755 3.2 3.96
   vertex 15.755 3.2 2
   vertex 15.755 3.3 3.96
  endloop
 endfacet
 facet normal 0 -1 0
  outer loop
   vertex 8.435 3.2 2
   vertex 15.755 3.2 2
   vertex 8.435 3.2 3.96
  endloop
 endfacet
 facet normal 0 -1 0
  outer loop
   vertex 15.755 3.2 2
   vertex 15.755 3.2 3.96
   vertex 8.435 3.2 3.96
  endloop
 endfacet
 facet normal 0 1 0
  outer loop
   vertex 15.755 3.3 2
   vertex 8.435 3.3 2
   vertex 8.435 3.3 3.96
  endloop
 endfacet
 facet normal 0 1 0
  outer loop
   vertex 15.755 3.3 3.96
   vertex 15.755 3.3 2
   vertex 8.435 3.3 3.96
  endloop
 endfacet
 facet normal 0 0 -1
  outer loop
   vertex 8.435 3.3 2
   vertex 15.755 3.3 2
   vertex 8.435 3.2 2
  endloop
 endfacet
 facet normal 0 0 -1
  outer loop
   vertex 8.435 3.2 2
   vertex 15.755 3.3 2
   vertex 15.755 3.2 2
  endloop
 endfacet
 facet normal 0 0 1
  outer loop
   vertex 15.755 3.3 3.96
   vertex 8.435 3.3 3.96
   vertex 8.435 3.2 3.96
  endloop
 endfacet
 facet normal 0 0 1
  outer loop
   vertex 15.755 3.3 3.96
   vertex 8.435 3.2 3.96
   vertex 15.755 3.2 3.96
  endloop
 endfacet
endsolid hac_baffle_a
solid hac_baffle_b
 facet normal -1 0 0
  outer loop
   vertex 8.435 4.9 2
   vertex 8.435 5 3.96
   vertex 8.435 5 2
  endloop
 endfacet
 facet normal -1 0 0
  outer loop
   vertex 8.435 4.9 2
   vertex 8.435 4.9 3.96
   vertex 8.435 5 3.96
  endloop
 endfacet
 facet normal 1 0 0
  outer loop
   vertex 15.755 5 3.96
   vertex 15.755 4.9 2
   vertex 15.755 5 2
  endloop
 endfacet
 facet normal 1 -0 0
  outer loop
   vertex 15.755 4.9 3.96
   vertex 15.755 4.9 2
   vertex 15.755 5 3.96
  endloop
 endfacet
 facet normal 0 -1 0
  outer loop
   vertex 8.435 4.9 2
   vertex 15.755 4.9 2
   vertex 8.435 4.9 3.96
  endloop
 endfacet
 facet normal 0 -1 0
  outer loop
   vertex 15.755 4.9 2
   vertex 15.755 4.9 3.96
   vertex 8.435 4.9 3.96
  endloop
 endfacet
 facet normal 0 1 0
  outer loop
   vertex 15.755 5 2
   vertex 8.435 5 2
   vertex 8.435 5 3.96
  endloop
 endfacet
 facet normal 0 1 0
  outer loop
   vertex 15.755 5 3.96
   vertex 15.755 5 2
   vertex 8.435 5 3.96
  endloop
 endfacet
 facet normal 0 0 -1
  outer loop
   vertex 8.435 5 2
   vertex 15.755 5 2
   vertex 8.435 4.9 2
  endloop
 endfacet
 facet normal 0 0 -1
  outer loop
   vertex 8.435 4.9 2
   vertex 15.755 5 2
   vertex 15.755 4.9 2
  endloop
 endfacet
 facet normal 0 0 1
  outer loop
   vertex 15.755 5 3.96
   vertex 8.435 5 3.96
   vertex 8.435 4.9 3.96
  endloop
 endfacet
 facet normal 0 0 1
  outer loop
   vertex 15.755 5 3.96
   vertex 8.435 4.9 3.96
   vertex 15.755 4.9 3.96
  endloop
 endfacet
endsolid hac_baffle_b
