solid rack_A01-NET_exhaust
 facet normal 0 -1 0
  outer loop
   vertex 9.04 3.2 0
   vertex 9.04 3.2 2
   vertex 8.44 3.2 2
  endloop
 endfacet
 facet normal 0 -1 0
  outer loop
   vertex 9.04 3.2 0
   vertex 8.44 3.2 2
   vertex 8.44 3.2 0
  endloop
 endfacet
endsolid rack_A01-NET_exhaust
solid rack_A02-NET_exhaust
 facet normal 0 -1 0
  outer loop
   vertex 9.65 3.2 0
   vertex 9.65 3.2 2
   vertex 9.05 3.2 2
  endloop
 endfacet
 facet normal 0 -1 0
  outer loop
   vertex 9.65 3.2 0
   vertex 9.05 3.2 2
   vertex 9.05 3.2 0
  endloop
 endfacet
endsolid rack_A02-NET_exhaust
solid rack_A03-HD_exhaust
 facet normal 0 -1 0
  outer loop
   vertex 10.26 3.2 0
   vertex 10.26 3.2 2
   vertex 9.66 3.2 2
  endloop
 endfacet
 facet normal 0 -1 0
  outer loop
   vertex 10.26 3.2 0
   vertex 9.66 3.2 2
   vertex 9.66 3.2 0
  endloop
 endfacet
endsolid rack_A03-HD_exhaust
solid rack_A04-HD_exhaust
 facet normal 0 -1 0
  outer loop
   vertex 10.87 3.2 0
   vertex 10.87 3.2 2
   vertex 10.27 3.2 2
  endloop
 endfacet
 facet normal 0 -1 0
  outer loop
   vertex 10.87 3.2 0
   vertex 10.27 3.2 2
   vertex 10.27 3.2 0
  endloop
 endfacet
endsolid rack_A04-HD_exhaust
solid rack_A05-HD_exhaust
 facet normal 0 -1 0
  outer loop
   vertex 11.48 3.2 0
   vertex 11.48 3.2 2
   vertex 10.88 3.2 2
  endloop
 endfacet
 facet normal 0 -1 0
  outer loop
   vertex 11.48 3.2 0
   vertex 10.88 3.2 2
   vertex 10.88 3.2 0
  endloop
 endfacet
endsolid rack_A05-HD_exhaust
solid rack_A06-HD_exhaust
 facet normal 0 -1 0
  outer loop
   vertex 12.09 3.2 0
   vertex 12.09 3.2 2
   vertex 11.49 3.2 2
  endloop
 endfacet
 facet normal 0 -1 0
  outer loop
   vertex 12.09 3.2 0
   vertex 11.49 3.2 2
   vertex 11.49 3.2 0
  endloop
 endfacet
endsolid rack_A06-HD_exhaust
solid rack_A07-HD_exhaust
 facet normal 0 -1 0
  outer loop
   vertex 12.7 3.2 0
   vertex 12.7 3.2 2
   vertex 12.1 3.2 2
  endloop
 endfacet
 facet normal 0 -1 0
  outer loop
   vertex 12.7 3.2 0
   vertex 12.1 3.2 2
   vertex 12.1 3.2 0
  endloop
 endfacet
endsolid rack_A07-HD_exhaust
solid rack_A08-HD_exhaust
 facet normal 0 -1 0
  outer loop
   vertex 13.31 3.2 0
   vertex 13.31 3.2 2
   vertex 12.71 3.2 2
  endloop
 endfacet
 facet normal 0 -1 0
  outer loop
   vertex 13.31 3.2 0
   vertex 12.71 3.2 2
   vertex 12.71 3.2 0
  endloop
 endfacet
endsolid rack_A08-HD_exhaust
solid rack_A09-HD_exhaust
 facet normal 0 -1 0
  outer loop
   vertex 13.92 3.2 0
   vertex 13.92 3.2 2
   vertex 13.32 3.2 2
  endloop
 endfacet
 facet normal 0 -1 0
  outer loop
   vertex 13.92 3.2 0
   vertex 13.32 3.2 2
   vertex 13.32 3.2 0
  endloop
 endfacet
endsolid rack_A09-HD_exhaust
solid rack_A10-HD_exhaust
 facet normal 0 -1 0
  outer loop
   vertex 14.53 3.2 0
   vertex 14.53 3.2 2
   vertex 13.93 3.2 2
  endloop
 endfacet
 facet normal 0 -1 0
  outer loop
   vertex 14.53 3.2 0
   vertex 13.93 3.2 2
   vertex 13.93 3.2 0
  endloop
 endfacet
endsolid rack_A10-HD_exhaust
solid rack_A11-NET_exhaust
 facet normal 0 -1 0
  outer loop
   vertex 15.14 3.2 0
   vertex 15.14 3.2 2
   vertex 14.54 3.2 2
  endloop
 endfacet
 facet normal 0 -1 0
  outer loop
   vertex 15.14 3.2 0
   vertex 14.54 3.2 2
   vertex 14.54 3.2 0
  endloop
 endfacet
endsolid rack_A11-NET_exhaust
solid rack_A12-NET_exhaust
 facet normal 0 -1 0
  outer loop
   vertex 15.75 3.2 0
   vertex 15.75 3.2 2
   vertex 15.15 3.2 2
  endloop
 endfacet
 facet normal 0 -1 0
  outer loop
   vertex 15.75 3.2 0
   vertex 15.15 3.2 2
   vertex 15.15 3.2 0
  endloop
 endfacet
endsolid rack_A12-NET_exhaust
solid rack_B01-NET_exhaust
 facet normal 0 -1 0
  outer loop
   vertex 9.04 5 0
   vertex 9.04 5 2
   vertex 8.44 5 2
  endloop
 endfacet
 facet normal 0 -1 0
  outer loop
   vertex 9.04 5 0
   vertex 8.44 5 2
   vertex 8.44 5 0
  endloop
 endfacet
endsolid rack_B01-NET_exhaust
solid rack_B02-NET_exhaust
 facet normal 0 -1 0
  outer loop
   vertex 9.65 5 0
   vertex 9.65 5 2
   vertex 9.05 5 2
  endloop
 endfacet
 facet normal 0 -1 0
  outer loop
   vertex 9.65 5 0
   vertex 9.05 5 2
   vertex 9.05 5 0
  endloop
 endfacet
endsolid rack_B02-NET_exhaust
solid rack_B03-HD_exhaust
 facet normal 0 -1 0
  outer loop
   vertex 10.26 5 0
   vertex 10.26 5 2
   vertex 9.66 5 2
  endloop
 endfacet
 facet normal 0 -1 0
  outer loop
   vertex 10.26 5 0
   vertex 9.66 5 2
   vertex 9.66 5 0
  endloop
 endfacet
endsolid rack_B03-HD_exhaust
solid rack_B04-HD_exhaust
 facet normal 0 -1 0
  outer loop
   vertex 10.87 5 0
   vertex 10.87 5 2
   vertex 10.27 5 2
  endloop
 endfacet
 facet normal 0 -1 0
  outer loop
   vertex 10.87 5 0
   vertex 10.27 5 2
   vertex 10.27 5 0
  endloop
 endfacet
endsolid rack_B04-HD_exhaust
solid rack_B05-HD_exhaust
 facet normal 0 -1 0
  outer loop
   vertex 11.48 5 0
   vertex 11.48 5 2
   vertex 10.88 5 2
  endloop
 endfacet
 facet normal 0 -1 0
  outer loop
   vertex 11.48 5 0
   vertex 10.88 5 2
   vertex 10.88 5 0
  endloop
 endfacet
endsolid rack_B05-HD_exhaust
solid rack_B06-HD_exhaust
 facet normal 0 -1 0
  outer loop
   vertex 12.09 5 0
   vertex 12.09 5 2
   vertex 11.49 5 2
  endloop
 endfacet
 facet normal 0 -1 0
  outer loop
   vertex 12.09 5 0
   vertex 11.49 5 2
   vertex 11.49 5 0
  endloop
 endfacet
endsolid rack_B06-HD_exhaust
solid rack_B07-HD_exhaust
 facet normal 0 -1 0
  outer loop
   vertex 12.7 5 0
   vertex 12.7 5 2
   vertex 12.1 5 2
  endloop
 endfacet
 facet normal 0 -1 0
  outer loop
   vertex 12.7 5 0
   vertex 12.1 5 2
   vertex 12.1 5 0
  endloop
 endfacet
endsolid rack_B07-HD_exhaust
solid rack_B08-HD_exhaust
 facet normal 0 -1 0
  outer loop
   vertex 13.31 5 0
   vertex 13.31 5 2
   vertex 12.71 5 2
  endloop
 endfacet
 facet normal 0 -1 0
  outer loop
   vertex 13.31 5 0
   vertex 12.71 5 2
   vertex 12.71 5 0
  endloop
 endfacet
endsolid rack_B08-HD_exhaust
solid rack_B09-HD_exhaust
 facet normal 0 -1 0
  outer loop
   vertex 13.92 5 0
   vertex 13.92 5 2
   vertex 13.32 5 2
  endloop
 endfacet
 facet normal 0 -1 0
  outer loop
   vertex 13.92 5 0
   vertex 13.32 5 2
   vertex 13.32 5 0
  endloop
 endfacet
endsolid rack_B09-HD_exhaust
solid rack_B10-HD_exhaust
 facet normal 0 -1 0
  outer loop
   vertex 14.53 5 0
   vertex 14.53 5 2
   vertex 13.93 5 2
  endloop
 endfacet
 facet normal 0 -1 0
  outer loop
   vertex 14.53 5 0
   vertex 13.93 5 2
   vertex 13.93 5 0
  endloop
 endfacet
endsolid rack_B10-HD_exhaust
solid rack_B11-NET_exhaust
 facet normal 0 -1 0
  outer loop
   vertex 15.14 5 0
   vertex 15.14 5 2
   vertex 14.54 5 2
  endloop
 endfacet
 facet normal 0 -1 0
  outer loop
   vertex 15.14 5 0
   vertex 14.54 5 2
   vertex 14.54 5 0
  endloop
 endfacet
endsolid rack_B11-NET_exhaust
solid rack_B12-NET_exhaust
 facet normal 0 -1 0
  outer loop
   vertex 15.75 5 0
   vertex 15.75 5 2
   vertex 15.15 5 2
  endloop
 endfacet
 facet normal 0 -1 0
  outer loop
   vertex 15.75 5 0
   vertex 15.15 5 2
   vertex 15.15 5 0
  endloop
 endfacet
endsolid rack_B12-NET_exhaust
