solid rack_A01-NET_intake
 facet normal 0 -1 0
  outer loop
   vertex 9.04 2 0
   vertex 9.04 2 2
   vertex 8.44 2 2
  endloop
 endfacet
 facet normal 0 -1 0
  outer loop
   vertex 9.04 2 0
   vertex 8.44 2 2
   vertex 8.44 2 0
  endloop
 endfacet
endsolid rack_A01-NET_intake
solid rack_A02-NET_intake
 facet normal 0 -1 0
  outer loop
   vertex 9.65 2 0
   vertex 9.65 2 2
   vertex 9.05 2 2
  endloop
 endfacet
 facet normal 0 -1 0
  outer loop
   vertex 9.65 2 0
   vertex 9.05 2 2
   vertex 9.05 2 0
  endloop
 endfacet
endsolid rack_A02-NET_intake
solid rack_A03-HD_intake
 facet normal 0 -1 0
  outer loop
   vertex 10.26 2 0
   vertex 10.26 2 2
   vertex 9.66 2 2
  endloop
 endfacet
 facet normal 0 -1 0
  outer loop
   vertex 10.26 2 0
   vertex 9.66 2 2
   vertex 9.66 2 0
  endloop
 endfacet
endsolid rack_A03-HD_intake
solid rack_A04-HD_intake
 facet normal 0 -1 0
  outer loop
   vertex 10.87 2 0
   vertex 10.87 2 2
   vertex 10.27 2 2
  endloop
 endfacet
 facet normal 0 -1 0
  outer loop
   vertex 10.87 2 0
   vertex 10.27 2 2
   vertex 10.27 2 0
  endloop
 endfacet
endsolid rack_A04-HD_intake
solid rack_A05-HD_intake
 facet normal 0 -1 0
  outer loop
   vertex 11.48 2 0
   vertex 11.48 2 2
   vertex 10.88 2 2
  endloop
 endfacet
 facet normal 0 -1 0
  outer loop
   vertex 11.48 2 0
   vertex 10.88 2 2
   vertex 10.88 2 0
  endloop
 endfacet
endsolid rack_A05-HD_intake
solid rack_A06-HD_intake
 facet normal 0 -1 0
  outer loop
   vertex 12.09 2 0
   vertex 12.09 2 2
   vertex 11.49 2 2
  endloop
 endfacet
 facet normal 0 -1 0
  outer loop
   vertex 12.09 2 0
   vertex 11.49 2 2
   vertex 11.49 2 0
  endloop
 endfacet
endsolid rack_A06-HD_intake
solid rack_A07-HD_intake
 facet normal 0 -1 0
  outer loop
   vertex 12.7 2 0
   vertex 12.7 2 2
   vertex 12.1 2 2
  endloop
 endfacet
 facet normal 0 -1 0
  outer loop
   vertex 12.7 2 0
   vertex 12.1 2 2
   vertex 12.1 2 0
  endloop
 endfacet
endsolid rack_A07-HD_intake
solid rack_A08-HD_intake
 facet normal 0 -1 0
  outer loop
   vertex 13.31 2 0
   vertex 13.31 2 2
   vertex 12.71 2 2
  endloop
 endfacet
 facet normal 0 -1 0
  outer loop
   vertex 13.31 2 0
   vertex 12.71 2 2
   vertex 12.71 2 0
  endloop
 endfacet
endsolid rack_A08-HD_intake
solid rack_A09-HD_intake
 facet normal 0 -1 0
  outer loop
   vertex 13.92 2 0
   vertex 13.92 2 2
   vertex 13.32 2 2
  endloop
 endfacet
 facet normal 0 -1 0
  outer loop
   vertex 13.92 2 0
   vertex 13.32 2 2
   vertex 13.32 2 0
  endloop
 endfacet
endsolid rack_A09-HD_intake
solid rack_A10-HD_intake
 facet normal 0 -1 0
  outer loop
   vertex 14.53 2 0
   vertex 14.53 2 2
   vertex 13.93 2 2
  endloop
 endfacet
 facet normal 0 -1 0
  outer loop
   vertex 14.53 2 0
   vertex 13.93 2 2
   vertex 13.93 2 0
  endloop
 endfacet
endsolid rack_A10-HD_intake
solid rack_A11-NET_intake
 facet normal 0 -1 0
  outer loop
   vertex 15.14 2 0
   vertex 15.14 2 2
   vertex 14.54 2 2
  endloop
 endfacet
 facet normal 0 -1 0
  outer loop
   vertex 15.14 2 0
   vertex 14.54 2 2
   vertex 14.54 2 0
  endloop
 endfacet
endsolid rack_A11-NET_intake
solid rack_A12-NET_intake
 facet normal 0 -1 0
  outer loop
   vertex 15.75 2 0
   vertex 15.75 2 2
   vertex 15.15 2 2
  endloop
 endfacet
 facet normal 0 -1 0
  outer loop
   vertex 15.75 2 0
   vertex 15.15 2 2
   vertex 15.15 2 0
  endloop
 endfacet
endsolid rack_A12-NET_intake
solid rack_B01-NET_intake
 facet normal 0 -1 0
  outer loop
   vertex 9.04 6.2 0
   vertex 9.04 6.2 2
   vertex 8.44 6.2 2
  endloop
 endfacet
 facet normal 0 -1 0
  outer loop
   vertex 9.04 6.2 0
   vertex 8.44 6.2 2
   vertex 8.44 6.2 0
  endloop
 endfacet
endsolid rack_B01-NET_intake
solid rack_B02-NET_intake
 facet normal 0 -1 0
  outer loop
   vertex 9.65 6.2 0
   vertex 9.65 6.2 2
   vertex 9.05 6.2 2
  endloop
 endfacet
 facet normal 0 -1 0
  outer loop
   vertex 9.65 6.2 0
   vertex 9.05 6.2 2
   vertex 9.05 6.2 0
  endloop
 endfacet
endsolid rack_B02-NET_intake
solid rack_B03-HD_intake
 facet normal 0 -1 0
  outer loop
   vertex 10.26 6.2 0
   vertex 10.26 6.2 2
   vertex 9.66 6.2 2
  endloop
 endfacet
 facet normal 0 -1 0
  outer loop
   vertex 10.26 6.2 0
   vertex 9.66 6.2 2
   vertex 9.66 6.2 0
  endloop
 endfacet
endsolid rack_B03-HD_intake
solid rack_B04-HD_intake
 facet normal 0 -1 0
  outer loop
   vertex 10.87 6.2 0
   vertex 10.87 6.2 2
   vertex 10.27 6.2 2
  endloop
 endfacet
 facet normal 0 -1 0
  outer loop
   vertex 10.87 6.2 0
   vertex 10.27 6.2 2
   vertex 10.27 6.2 0
  endloop
 endfacet
endsolid rack_B04-HD_intake
solid rack_B05-HD_intake
 facet normal 0 -1 0
  outer loop
   vertex 11.48 6.2 0
   vertex 11.48 6.2 2
   vertex 10.88 6.2 2
  endloop
 endfacet
 facet normal 0 -1 0
  outer loop
   vertex 11.48 6.2 0
   vertex 10.88 6.2 2
   vertex 10.88 6.2 0
  endloop
 endfacet
endsolid rack_B05-HD_intake
solid rack_B06-HD_intake
 facet normal 0 -1 0
  outer loop
   vertex 12.09 6.2 0
   vertex 12.09 6.2 2
   vertex 11.49 6.2 2
  endloop
 endfacet
 facet normal 0 -1 0
  outer loop
   vertex 12.09 6.2 0
   vertex 11.49 6.2 2
   vertex 11.49 6.2 0
  endloop
 endfacet
endsolid rack_B06-HD_intake
solid rack_B07-HD_intake
 facet normal 0 -1 0
  outer loop
   vertex 12.7 6.2 0
   vertex 12.7 6.2 2
   vertex 12.1 6.2 2
  endloop
 endfacet
 facet normal 0 -1 0
  outer loop
   vertex 12.7 6.2 0
   vertex 12.1 6.2 2
   vertex 12.1 6.2 0
  endloop
 endfacet
endsolid rack_B07-HD_intake
solid rack_B08-HD_intake
 facet normal 0 -1 0
  outer loop
   vertex 13.31 6.2 0
   vertex 13.31 6.2 2
   vertex 12.71 6.2 2
  endloop
 endfacet
 facet normal 0 -1 0
  outer loop
   vertex 13.31 6.2 0
   vertex 12.71 6.2 2
   vertex 12.71 6.2 0
  endloop
 endfacet
endsolid rack_B08-HD_intake
solid rack_B09-HD_intake
 facet normal 0 -1 0
  outer loop
   vertex 13.92 6.2 0
   vertex 13.92 6.2 2
   vertex 13.32 6.2 2
  endloop
 endfacet
 facet normal 0 -1 0
  outer loop
   vertex 13.92 6.2 0
   vertex 13.32 6.2 2
   vertex 13.32 6.2 0
  endloop
 endfacet
endsolid rack_B09-HD_intake
solid rack_B10-HD_intake
 facet normal 0 -1 0
  outer loop
   vertex 14.53 6.2 0
   vertex 14.53 6.2 2
   vertex 13.93 6.2 2
  endloop
 endfacet
 facet normal 0 -1 0
  outer loop
   vertex 14.53 6.2 0
   vertex 13.93 6.2 2
   vertex 13.93 6.2 0
  endloop
 endfacet
endsolid rack_B10-HD_intake
solid rack_B11-NET_intake
 facet normal 0 -1 0
  outer loop
   vertex 15.14 6.2 0
   vertex 15.14 6.2 2
   vertex 14.54 6.2 2
  endloop
 endfacet
 facet normal 0 -1 0
  outer loop
   vertex 15.14 6.2 0
   vertex 14.54 6.2 2
   vertex 14.54 6.2 0
  endloop
 endfacet
endsolid rack_B11-NET_intake
solid rack_B12-NET_intake
 facet normal 0 -1 0
  outer loop
   vertex 15.75 6.2 0
   vertex 15.75 6.2 2
   vertex 15.15 6.2 2
  endloop
 endfacet
 facet normal 0 -1 0
  outer loop
   vertex 15.75 6.2 0
   vertex 15.15 6.2 2
   vertex 15.15 6.2 0
  endloop
 endfacet
endsolid rack_B12-NET_intake
