solid rack_A01-NET
 facet normal -1 0 0
  outer loop
   vertex 8.44 2 0
   vertex 8.44 3.2 1.9999
   vertex 8.44 3.2 0
  endloop
 endfacet
 facet normal -1 0 0
  outer loop
   vertex 8.44 2 0
   vertex 8.44 2 1.9999
   vertex 8.44 3.2 1.9999
  endloop
 endfacet
 facet normal 1 0 0
  outer loop
   vertex 9.04 3.2 1.9999
   vertex 9.04 2 0
   vertex 9.04 3.2 0
  endloop
 endfacet
 facet normal 1 -0 0
  outer loop
   vertex 9.04 2 1.9999
   vertex 9.04 2 0
   vertex 9.04 3.2 1.9999
  endloop
 endfacet
 facet normal 0 -1 0
  outer loop
   vertex 9.04 2 0
   vertex 8.44 2 1.9999
   vertex 8.44 2 0
  endloop
 endfacet
 facet normal 0 -1 0
  outer loop
   vertex 9.04 2 0
   vertex 9.04 2 1.9999
   vertex 8.44 2 1.9999
  endloop
 endfacet
 facet normal 0 1 0
  outer loop
   vertex 8.44 3.2 1.9999
   vertex 9.04 3.2 0
   vertex 8.44 3.2 0
  endloop
 endfacet
 facet normal 0 1 0
  outer loop
   vertex 9.04 3.2 1.9999
   vertex 9.04 3.2 0
   vertex 8.44 3.2 1.9999
  endloop
 endfacet
 facet normal 0 0 -1
  outer loop
   vertex 8.44 3.2 0
   vertex 9.04 3.2 0
   vertex 8.44 2 0
  endloop
 endfacet
 facet normal 0 0 -1
  outer loop
   vertex 8.44 2 0
   vertex 9.04 3.2 0
   vertex 9.04 2 0
  endloop
 endfacet
 facet normal 0 0 1
  outer loop
   vertex 9.04 3.2 1.9999
   vertex 8.44 3.2 1.9999
   vertex 8.44 2 1.9999
  endloop
 endfacet
 facet normal 0 0 1
  outer loop
   vertex 9.04 3.2 1.9999
   vertex 8.44 2 1.9999
   vertex 9.04 2 1.9999
  endloop
 endfacet
endsolid rack_A01-NET
solid rack_A02-NET
 facet normal -1 0 0
  outer loop
   vertex 9.05 2 0
   vertex 9.05 3.2 1.9999
   vertex 9.05 3.2 0
  endloop
 endfacet
 facet normal -1 0 0
  outer loop
   vertex 9.05 2 0
   vertex 9.05 2 1.9999
   vertex 9.05 3.2 1.9999
  endloop
 endfacet
 facet normal 1 0 0
  outer loop
   vertex 9.65 3.2 1.9999
   vertex 9.65 2 0
   vertex 9.65 3.2 0
  endloop
 endfacet
 facet normal 1 -0 0
  outer loop
   vertex 9.65 2 1.9999
   vertex 9.65 2 0
   vertex 9.65 3.2 1.9999
  endloop
 endfacet
 facet normal 0 -1 0
  outer loop
   vertex 9.65 2 0
   vertex 9.05 2 1.9999
   vertex 9.05 2 0
  endloop
 endfacet
 facet normal 0 -1 0
  outer loop
   vertex 9.65 2 0
   vertex 9.65 2 1.9999
   vertex 9.05 2 1.9999
  endloop
 endfacet
 facet normal 0 1 0
  outer loop
   vertex 9.05 3.2 1.9999
   vertex 9.65 3.2 0
   vertex 9.05 3.2 0
  endloop
 endfacet
 facet normal 0 1 0
  outer loop
   vertex 9.65 3.2 1.9999
   vertex 9.65 3.2 0
   vertex 9.05 3.2 1.9999
  endloop
 endfacet
 facet normal 0 0 -1
  outer loop
   vertex 9.05 3.2 0
   vertex 9.65 3.2 0
   vertex 9.05 2 0
  endloop
 endfacet
 facet normal 0 0 -1
  outer loop
   vertex 9.05 2 0
   vertex 9.65 3.2 0
   vertex 9.65 2 0
  endloop
 endfacet
 facet normal 0 0 1
  outer loop
   vertex 9.65 3.2 1.9999
   vertex 9.05 3.2 1.9999
   vertex 9.05 2 1.9999
  endloop
 endfacet
 facet normal 0 0 1
  outer loop
   vertex 9.65 3.2 1.9999
   vertex 9.05 2 1.9999
   vertex 9.65 2 1.9999
  endloop
 endfacet
endsolid rack_A02-NET
solid rack_A03-HD
 facet normal -1 0 0
  outer loop
   vertex 9.66 2 0
   vertex 9.66 3.2 1.9999
   vertex 9.66 3.2 0
  endloop
 endfacet
 facet normal -1 0 0
  outer loop
   vertex 9.66 2 0
   vertex 9.66 2 1.9999
   vertex 9.66 3.2 1.9999
  endloop
 endfacet
 facet normal 1 0 0
  outer loop
   vertex 10.26 3.2 1.9999
   vertex 10.26 2 0
   vertex 10.26 3.2 0
  endloop
 endfacet
 facet normal 1 -0 0
  outer loop
   vertex 10.26 2 1.9999
   vertex 10.26 2 0
   vertex 10.26 3.2 1.9999
  endloop
 endfacet
 facet normal 0 -1 0
  outer loop
   vertex 10.26 2 0
   vertex 9.66 2 1.9999
   vertex 9.66 2 0
  endloop
 endfacet
 facet normal 0 -1 0
  outer loop
   vertex 10.26 2 0
   vertex 10.26 2 1.9999
   vertex 9.66 2 1.9999
  endloop
 endfacet
 facet normal 0 1 0
  outer loop
   vertex 9.66 3.2 1.9999
   vertex 10.26 3.2 0
   vertex 9.66 3.2 0
  endloop
 endfacet
 facet normal 0 1 0
  outer loop
   vertex 10.26 3.2 1.9999
   vertex 10.26 3.2 0
   vertex 9.66 3.2 1.9999
  endloop
 endfacet
 facet normal 0 0 -1
  outer loop
   vertex 9.66 3.2 0
   vertex 10.26 3.2 0
   vertex 9.66 2 0
  endloop
 endfacet
 facet normal 0 0 -1
  outer loop
   vertex 9.66 2 0
   vertex 10.26 3.2 0
   vertex 10.26 2 0
  endloop
 endfacet
 facet normal 0 0 1
  outer loop
   vertex 10.26 3.2 1.9999
   vertex 9.66 3.2 1.9999
   vertex 9.66 2 1.9999
  endloop
 endfacet
 facet normal 0 0 1
  outer loop
   vertex 10.26 3.2 1.9999
   vertex 9.66 2 1.9999
   vertex 10.26 2 1.9999
  endloop
 endfacet
endsolid rack_A03-HD
solid rack_A04-HD
 facet normal -1 0 0
  outer loop
   vertex 10.27 2 0
   vertex 10.27 3.2 1.9999
   vertex 10.27 3.2 0
  endloop
 endfacet
 facet normal -1 0 0
  outer loop
   vertex 10.27 2 0
   vertex 10.27 2 1.9999
   vertex 10.27 3.2 1.9999
  endloop
 endfacet
 facet normal 1 0 0
  outer loop
   vertex 10.87 3.2 1.9999
   vertex 10.87 2 0
   vertex 10.87 3.2 0
  endloop
 endfacet
 facet normal 1 -0 0
  outer loop
   vertex 10.87 2 1.9999
   vertex 10.87 2 0
   vertex 10.87 3.2 1.9999
  endloop
 endfacet
 facet normal 0 -1 0
  outer loop
   vertex 10.87 2 0
   vertex 10.27 2 1.9999
   vertex 10.27 2 0
  endloop
 endfacet
 facet normal 0 -1 0
  outer loop
   vertex 10.87 2 0
   vertex 10.87 2 1.9999
   vertex 10.27 2 1.9999
  endloop
 endfacet
 facet normal 0 1 0
  outer loop
   vertex 10.27 3.2 1.9999
   vertex 10.87 3.2 0
   vertex 10.27 3.2 0
  endloop
 endfacet
 facet normal 0 1 0
  outer loop
   vertex 10.87 3.2 1.9999
   vertex 10.87 3.2 0
   vertex 10.27 3.2 1.9999
  endloop
 endfacet
 facet normal 0 0 -1
  outer loop
   vertex 10.27 3.2 0
   vertex 10.87 3.2 0
   vertex 10.27 2 0
  endloop
 endfacet
 facet normal 0 0 -1
  outer loop
   vertex 10.27 2 0
   vertex 10.87 3.2 0
   vertex 10.87 2 0
  endloop
 endfacet
 facet normal 0 0 1
  outer loop
   vertex 10.87 3.2 1.9999
   vertex 10.27 3.2 1.9999
   vertex 10.27 2 1.9999
  endloop
 endfacet
 facet normal 0 0 1
  outer loop
   vertex 10.87 3.2 1.9999
   vertex 10.27 2 1.9999
   vertex 10.87 2 1.9999
  endloop
 endfacet
endsolid rack_A04-HD
solid rack_A05-HD
 facet normal -1 0 0
  outer loop
   vertex 10.88 2 0
   vertex 10.88 3.2 1.9999
   vertex 10.88 3.2 0
  endloop
 endfacet
 facet normal -1 0 0
  outer loop
   vertex 10.88 2 0
   vertex 10.88 2 1.9999
   vertex 10.88 3.2 1.9999
  endloop
 endfacet
 facet normal 1 0 0
  outer loop
   vertex 11.48 3.2 1.9999
   vertex 11.48 2 0
   vertex 11.48 3.2 0
  endloop
 endfacet
 facet normal 1 -0 0
  outer loop
   vertex 11.48 2 1.9999
   vertex 11.48 2 0
   vertex 11.48 3.2 1.9999
  endloop
 endfacet
 facet normal 0 -1 0
  outer loop
   vertex 11.48 2 0
   vertex 10.88 2 1.9999
   vertex 10.88 2 0
  endloop
 endfacet
 facet normal 0 -1 0
  outer loop
   vertex 11.48 2 0
   vertex 11.48 2 1.9999
   vertex 10.88 2 1.9999
  endloop
 endfacet
 facet normal 0 1 0
  outer loop
   vertex 10.88 3.2 1.9999
   vertex 11.48 3.2 0
   vertex 10.88 3.2 0
  endloop
 endfacet
 facet normal 0 1 0
  outer loop
   vertex 11.48 3.2 1.9999
   vertex 11.48 3.2 0
   vertex 10.88 3.2 1.9999
  endloop
 endfacet
 facet normal 0 0 -1
  outer loop
   vertex 10.88 3.2 0
   vertex 11.48 3.2 0
   vertex 10.88 2 0
  endloop
 endfacet
 facet normal 0 0 -1
  outer loop
   vertex 10.88 2 0
   vertex 11.48 3.2 0
   vertex 11.48 2 0
  endloop
 endfacet
 facet normal 0 0 1
  outer loop
   vertex 11.48 3.2 1.9999
   vertex 10.88 3.2 1.9999
   vertex 10.88 2 1.9999
  endloop
 endfacet
 facet normal 0 0 1
  outer loop
   vertex 11.48 3.2 1.9999
   vertex 10.88 2 1.9999
   vertex 11.48 2 1.9999
  endloop
 endfacet
endsolid rack_A05-HD
solid rack_A06-HD
 facet normal -1 0 0
  outer loop
   vertex 11.49 2 0
   vertex 11.49 3.2 1.9999
   vertex 11.49 3.2 0
  endloop
 endfacet
 facet normal -1 0 0
  outer loop
   vertex 11.49 2 0
   vertex 11.49 2 1.9999
   vertex 11.49 3.2 1.9999
  endloop
 endfacet
 facet normal 1 0 0
  outer loop
   vertex 12.09 3.2 1.9999
   vertex 12.09 2 0
   vertex 12.09 3.2 0
  endloop
 endfacet
 facet normal 1 -0 0
  outer loop
   vertex 12.09 2 1.9999
   vertex 12.09 2 0
   vertex 12.09 3.2 1.9999
  endloop
 endfacet
 facet normal 0 -1 0
  outer loop
   vertex 12.09 2 0
   vertex 11.49 2 1.9999
   vertex 11.49 2 0
  endloop
 endfacet
 facet normal 0 -1 0
  outer loop
   vertex 12.09 2 0
   vertex 12.09 2 1.9999
   vertex 11.49 2 1.9999
  endloop
 endfacet
 facet normal 0 1 0
  outer loop
   vertex 11.49 3.2 1.9999
   vertex 12.09 3.2 0
   vertex 11.49 3.2 0
  endloop
 endfacet
 facet normal 0 1 0
  outer loop
   vertex 12.09 3.2 1.9999
   vertex 12.09 3.2 0
   vertex 11.49 3.2 1.9999
  endloop
 endfacet
 facet normal 0 0 -1
  outer loop
   vertex 11.49 3.2 0
   vertex 12.09 3.2 0
   vertex 11.49 2 0
  endloop
 endfacet
 facet normal 0 0 -1
  outer loop
   vertex 11.49 2 0
   vertex 12.09 3.2 0
   vertex 12.09 2 0
  endloop
 endfacet
 facet normal 0 0 1
  outer loop
   vertex 12.09 3.2 1.9999
   vertex 11.49 3.2 1.9999
   vertex 11.49 2 1.9999
  endloop
 endfacet
 facet normal 0 0 1
  outer loop
   vertex 12.09 3.2 1.9999
   vertex 11.49 2 1.9999
   vertex 12.09 2 1.9999
  endloop
 endfacet
endsolid rack_A06-HD
solid rack_A07-HD
 facet normal -1 0 0
  outer loop
   vertex 12.1 2 0
   vertex 12.1 3.2 1.9999
   vertex 12.1 3.2 0
  endloop
 endfacet
 facet normal -1 0 0
  outer loop
   vertex 12.1 2 0
   vertex 12.1 2 1.9999
   vertex 12.1 3.2 1.9999
  endloop
 endfacet
 facet normal 1 0 0
  outer loop
   vertex 12.7 3.2 1.9999
   vertex 12.7 2 0
   vertex 12.7 3.2 0
  endloop
 endfacet
 facet normal 1 -0 0
  outer loop
   vertex 12.7 2 1.9999
   vertex 12.7 2 0
   vertex 12.7 3.2 1.9999
  endloop
 endfacet
 facet normal 0 -1 0
  outer loop
   vertex 12.7 2 0
   vertex 12.1 2 1.9999
   vertex 12.1 2 0
  endloop
 endfacet
 facet normal 0 -1 0
  outer loop
   vertex 12.7 2 0
   vertex 12.7 2 1.9999
   vertex 12.1 2 1.9999
  endloop
 endfacet
 facet normal 0 1 0
  outer loop
   vertex 12.1 3.2 1.9999
   vertex 12.7 3.2 0
   vertex 12.1 3.2 0
  endloop
 endfacet
 facet normal 0 1 0
  outer loop
   vertex 12.7 3.2 1.9999
   vertex 12.7 3.2 0
   vertex 12.1 3.2 1.9999
  endloop
 endfacet
 facet normal 0 0 -1
  outer loop
   vertex 12.1 3.2 0
   vertex 12.7 3.2 0
   vertex 12.1 2 0
  endloop
 endfacet
 facet normal 0 0 -1
  outer loop
   vertex 12.1 2 0
   vertex 12.7 3.2 0
   vertex 12.7 2 0
  endloop
 endfacet
 facet normal 0 0 1
  outer loop
   vertex 12.7 3.2 1.9999
   vertex 12.1 3.2 1.9999
   vertex 12.1 2 1.9999
  endloop
 endfacet
 facet normal 0 0 1
  outer loop
   vertex 12.7 3.2 1.9999
   vertex 12.1 2 1.9999
   vertex 12.7 2 1.9999
  endloop
 endfacet
endsolid rack_A07-HD
solid rack_A08-HD
 facet normal -1 0 0
  outer loop
   vertex 12.71 2 0
   vertex 12.71 3.2 1.9999
   vertex 12.71 3.2 0
  endloop
 endfacet
 facet normal -1 0 0
  outer loop
   vertex 12.71 2 0
   vertex 12.71 2 1.9999
   vertex 12.71 3.2 1.9999
  endloop
 endfacet
 facet normal 1 0 0
  outer loop
   vertex 13.31 3.2 1.9999
   vertex 13.31 2 0
   vertex 13.31 3.2 0
  endloop
 endfacet
 facet normal 1 -0 0
  outer loop
   vertex 13.31 2 1.9999
   vertex 13.31 2 0
   vertex 13.31 3.2 1.9999
  endloop
 endfacet
 facet normal 0 -1 0
  outer loop
   vertex 13.31 2 0
   vertex 12.71 2 1.9999
   vertex 12.71 2 0
  endloop
 endfacet
 facet normal 0 -1 0
  outer loop
   vertex 13.31 2 0
   vertex 13.31 2 1.9999
   vertex 12.71 2 1.9999
  endloop
 endfacet
 facet normal 0 1 0
  outer loop
   vertex 12.71 3.2 1.9999
   vertex 13.31 3.2 0
   vertex 12.71 3.2 0
  endloop
 endfacet
 facet normal 0 1 0
  outer loop
   vertex 13.31 3.2 1.9999
   vertex 13.31 3.2 0
   vertex 12.71 3.2 1.9999
  endloop
 endfacet
 facet normal 0 0 -1
  outer loop
   vertex 12.71 3.2 0
   vertex 13.31 3.2 0
   vertex 12.71 2 0
  endloop
 endfacet
 facet normal 0 0 -1
  outer loop
   vertex 12.71 2 0
   vertex 13.31 3.2 0
   vertex 13.31 2 0
  endloop
 endfacet
 facet normal 0 0 1
  outer loop
   vertex 13.31 3.2 1.9999
   vertex 12.71 3.2 1.9999
   vertex 12.71 2 1.9999
  endloop
 endfacet
 facet normal 0 0 1
  outer loop
   vertex 13.31 3.2 1.9999
   vertex 12.71 2 1.9999
   vertex 13.31 2 1.9999
  endloop
 endfacet
endsolid rack_A08-HD
solid rack_A09-HD
 facet normal -1 0 0
  outer loop
   vertex 13.32 2 0
   vertex 13.32 3.2 1.9999
   vertex 13.32 3.2 0
  endloop
 endfacet
 facet normal -1 0 0
  outer loop
   vertex 13.32 2 0
   vertex 13.32 2 1.9999
   vertex 13.32 3.2 1.9999
  endloop
 endfacet
 facet normal 1 0 0
  outer loop
   vertex 13.92 3.2 1.9999
   vertex 13.92 2 0
   vertex 13.92 3.2 0
  endloop
 endfacet
 facet normal 1 -0 0
  outer loop
   vertex 13.92 2 1.9999
   vertex 13.92 2 0
   vertex 13.92 3.2 1.9999
  endloop
 endfacet
 facet normal 0 -1 0
  outer loop
   vertex 13.92 2 0
   vertex 13.32 2 1.9999
   vertex 13.32 2 0
  endloop
 endfacet
 facet normal 0 -1 0
  outer loop
   vertex 13.92 2 0
   vertex 13.92 2 1.9999
   vertex 13.32 2 1.9999
  endloop
 endfacet
 facet normal 0 1 0
  outer loop
   vertex 13.32 3.2 1.9999
   vertex 13.92 3.2 0
   vertex 13.32 3.2 0
  endloop
 endfacet
 facet normal 0 1 0
  outer loop
   vertex 13.92 3.2 1.9999
   vertex 13.92 3.2 0
   vertex 13.32 3.2 1.9999
  endloop
 endfacet
 facet normal 0 0 -1
  outer loop
   vertex 13.32 3.2 0
   vertex 13.92 3.2 0
   vertex 13.32 2 0
  endloop
 endfacet
 facet normal 0 0 -1
  outer loop
   vertex 13.32 2 0
   vertex 13.92 3.2 0
   vertex 13.92 2 0
  endloop
 endfacet
 facet normal 0 0 1
  outer loop
   vertex 13.92 3.2 1.9999
   vertex 13.32 3.2 1.9999
   vertex 13.32 2 1.9999
  endloop
 endfacet
 facet normal 0 0 1
  outer loop
   vertex 13.92 3.2 1.9999
   vertex 13.32 2 1.9999
   vertex 13.92 2 1.9999
  endloop
 endfacet
endsolid rack_A09-HD
solid rack_A10-HD
 facet normal -1 0 0
  outer loop
   vertex 13.93 2 0
   vertex 13.93 3.2 1.9999
   vertex 13.93 3.2 0
  endloop
 endfacet
 facet normal -1 0 0
  outer loop
   vertex 13.93 2 0
   vertex 13.93 2 1.9999
   vertex 13.93 3.2 1.9999
  endloop
 endfacet
 facet normal 1 0 0
  outer loop
   vertex 14.53 3.2 1.9999
   vertex 14.53 2 0
   vertex 14.53 3.2 0
  endloop
 endfacet
 facet normal 1 -0 0
  outer loop
   vertex 14.53 2 1.9999
   vertex 14.53 2 0
   vertex 14.53 3.2 1.9999
  endloop
 endfacet
 facet normal 0 -1 0
  outer loop
   vertex 14.53 2 0
   vertex 13.93 2 1.9999
   vertex 13.93 2 0
  endloop
 endfacet
 facet normal 0 -1 0
  outer loop
   vertex 14.53 2 0
   vertex 14.53 2 1.9999
   vertex 13.93 2 1.9999
  endloop
 endfacet
 facet normal 0 1 0
  outer loop
   vertex 13.93 3.2 1.9999
   vertex 14.53 3.2 0
   vertex 13.93 3.2 0
  endloop
 endfacet
 facet normal 0 1 0
  outer loop
   vertex 14.53 3.2 1.9999
   vertex 14.53 3.2 0
   vertex 13.93 3.2 1.9999
  endloop
 endfacet
 facet normal 0 0 -1
  outer loop
   vertex 13.93 3.2 0
   vertex 14.53 3.2 0
   vertex 13.93 2 0
  endloop
 endfacet
 facet normal 0 0 -1
  outer loop
   vertex 13.93 2 0
   vertex 14.53 3.2 0
   vertex 14.53 2 0
  endloop
 endfacet
 facet normal 0 0 1
  outer loop
   vertex 14.53 3.2 1.9999
   vertex 13.93 3.2 1.9999
   vertex 13.93 2 1.9999
  endloop
 endfacet
 facet normal 0 0 1
  outer loop
   vertex 14.53 3.2 1.9999
   vertex 13.93 2 1.9999
   vertex 14.53 2 1.9999
  endloop
 endfacet
endsolid rack_A10-HD
solid rack_A11-NET
 facet normal -1 0 0
  outer loop
   vertex 14.54 2 0
   vertex 14.54 3.2 1.9999
   vertex 14.54 3.2 0
  endloop
 endfacet
 facet normal -1 0 0
  outer loop
   vertex 14.54 2 0
   vertex 14.54 2 1.9999
   vertex 14.54 3.2 1.9999
  endloop
 endfacet
 facet normal 1 0 0
  outer loop
   vertex 15.14 3.2 1.9999
   vertex 15.14 2 0
   vertex 15.14 3.2 0
  endloop
 endfacet
 facet normal 1 -0 0
  outer loop
   vertex 15.14 2 1.9999
   vertex 15.14 2 0
   vertex 15.14 3.2 1.9999
  endloop
 endfacet
 facet normal 0 -1 0
  outer loop
   vertex 15.14 2 0
   vertex 14.54 2 1.9999
   vertex 14.54 2 0
  endloop
 endfacet
 facet normal 0 -1 0
  outer loop
   vertex 15.14 2 0
   vertex 15.14 2 1.9999
   vertex 14.54 2 1.9999
  endloop
 endfacet
 facet normal 0 1 0
  outer loop
   vertex 14.54 3.2 1.9999
   vertex 15.14 3.2 0
   vertex 14.54 3.2 0
  endloop
 endfacet
 facet normal 0 1 0
  outer loop
   vertex 15.14 3.2 1.9999
   vertex 15.14 3.2 0
   vertex 14.54 3.2 1.9999
  endloop
 endfacet
 facet normal 0 0 -1
  outer loop
   vertex 14.54 3.2 0
   vertex 15.14 3.2 0
   vertex 14.54 2 0
  endloop
 endfacet
 facet normal 0 0 -1
  outer loop
   vertex 14.54 2 0
   vertex 15.14 3.2 0
   vertex 15.14 2 0
  endloop
 endfacet
 facet normal 0 0 1
  outer loop
   vertex 15.14 3.2 1.9999
   vertex 14.54 3.2 1.9999
   vertex 14.54 2 1.9999
  endloop
 endfacet
 facet normal 0 0 1
  outer loop
   vertex 15.14 3.2 1.9999
   vertex 14.54 2 1.9999
   vertex 15.14 2 1.9999
  endloop
 endfacet
endsolid rack_A11-NET
solid rack_A12-NET
 facet normal -1 0 0
  outer loop
   vertex 15.15 2 0
   vertex 15.15 3.2 1.9999
   vertex 15.15 3.2 0
  endloop
 endfacet
 facet normal -1 0 0
  outer loop
   vertex 15.15 2 0
   vertex 15.15 2 1.9999
   vertex 15.15 3.2 1.9999
  endloop
 endfacet
 facet normal 1 0 0
  outer loop
   vertex 15.75 3.2 1.9999
   vertex 15.75 2 0
   vertex 15.75 3.2 0
  endloop
 endfacet
 facet normal 1 -0 0
  outer loop
   vertex 15.75 2 1.9999
   vertex 15.75 2 0
   vertex 15.75 3.2 1.9999
  endloop
 endfacet
 facet normal 0 -1 0
  outer loop
   vertex 15.75 2 0
   vertex 15.15 2 1.9999
   vertex 15.15 2 0
  endloop
 endfacet
 facet normal 0 -1 0
  outer loop
   vertex 15.75 2 0
   vertex 15.75 2 1.9999
   vertex 15.15 2 1.9999
  endloop
 endfacet
 facet normal 0 1 0
  outer loop
   vertex 15.15 3.2 1.9999
   vertex 15.75 3.2 0
   vertex 15.15 3.2 0
  endloop
 endfacet
 facet normal 0 1 0
  outer loop
   vertex 15.75 3.2 1.9999
   vertex 15.75 3.2 0
   vertex 15.15 3.2 1.9999
  endloop
 endfacet
 facet normal 0 0 -1
  outer loop
   vertex 15.15 3.2 0
   vertex 15.75 3.2 0
   vertex 15.15 2 0
  endloop
 endfacet
 facet normal 0 0 -1
  outer loop
   vertex 15.15 2 0
   vertex 15.75 3.2 0
   vertex 15.75 2 0
  endloop
 endfacet
 facet normal 0 0 1
  outer loop
   vertex 15.75 3.2 1.9999
   vertex 15.15 3.2 1.9999
   vertex 15.15 2 1.9999
  endloop
 endfacet
 facet normal 0 0 1
  outer loop
   vertex 15.75 3.2 1.9999
   vertex 15.15 2 1.9999
   vertex 15.75 2 1.9999
  endloop
 endfacet
endsolid rack_A12-NET
solid rack_B01-NET
 facet normal -1 0 0
  outer loop
   vertex 8.44 5 0
   vertex 8.44 6.2 1.9999
   vertex 8.44 6.2 0
  endloop
 endfacet
 facet normal -1 0 0
  outer loop
   vertex 8.44 5 0
   vertex 8.44 5 1.9999
   vertex 8.44 6.2 1.9999
  endloop
 endfacet
 facet normal 1 0 0
  outer loop
   vertex 9.04 6.2 1.9999
   vertex 9.04 5 0
   vertex 9.04 6.2 0
  endloop
 endfacet
 facet normal 1 -0 0
  outer loop
   vertex 9.04 5 1.9999
   vertex 9.04 5 0
   vertex 9.04 6.2 1.9999
  endloop
 endfacet
 facet normal 0 -1 0
  outer loop
   vertex 9.04 5 0
   vertex 8.44 5 1.9999
   vertex 8.44 5 0
  endloop
 endfacet
 facet normal 0 -1 0
  outer loop
   vertex 9.04 5 0
   vertex 9.04 5 1.9999
   vertex 8.44 5 1.9999
  endloop
 endfacet
 facet normal 0 1 0
  outer loop
   vertex 8.44 6.2 1.9999
   vertex 9.04 6.2 0
   vertex 8.44 6.2 0
  endloop
 endfacet
 facet normal 0 1 0
  outer loop
   vertex 9.04 6.2 1.9999
   vertex 9.04 6.2 0
   vertex 8.44 6.2 1.9999
  endloop
 endfacet
 facet normal 0 0 -1
  outer loop
   vertex 8.44 6.2 0
   vertex 9.04 6.2 0
   vertex 8.44 5 0
  endloop
 endfacet
 facet normal 0 0 -1
  outer loop
   vertex 8.44 5 0
   vertex 9.04 6.2 0
   vertex 9.04 5 0
  endloop
 endfacet
 facet normal 0 0 1
  outer loop
   vertex 9.04 6.2 1.9999
   vertex 8.44 6.2 1.9999
   vertex 8.44 5 1.9999
  endloop
 endfacet
 facet normal 0 0 1
  outer loop
   vertex 9.04 6.2 1.9999
   vertex 8.44 5 1.9999
   vertex 9.04 5 1.9999
  endloop
 endfacet
endsolid rack_B01-NET
solid rack_B02-NET
 facet normal -1 0 0
  outer loop
   vertex 9.05 5 0
   vertex 9.05 6.2 1.9999
   vertex 9.05 6.2 0
  endloop
 endfacet
 facet normal -1 0 0
  outer loop
   vertex 9.05 5 0
   vertex 9.05 5 1.9999
   vertex 9.05 6.2 1.9999
  endloop
 endfacet
 facet normal 1 0 0
  outer loop
   vertex 9.65 6.2 1.9999
   vertex 9.65 5 0
   vertex 9.65 6.2 0
  endloop
 endfacet
 facet normal 1 -0 0
  outer loop
   vertex 9.65 5 1.9999
   vertex 9.65 5 0
   vertex 9.65 6.2 1.9999
  endloop
 endfacet
 facet normal 0 -1 0
  outer loop
   vertex 9.65 5 0
   vertex 9.05 5 1.9999
   vertex 9.05 5 0
  endloop
 endfacet
 facet normal 0 -1 0
  outer loop
   vertex 9.65 5 0
   vertex 9.65 5 1.9999
   vertex 9.05 5 1.9999
  endloop
 endfacet
 facet normal 0 1 0
  outer loop
   vertex 9.05 6.2 1.9999
   vertex 9.65 6.2 0
   vertex 9.05 6.2 0
  endloop
 endfacet
 facet normal 0 1 0
  outer loop
   vertex 9.65 6.2 1.9999
   vertex 9.65 6.2 0
   vertex 9.05 6.2 1.9999
  endloop
 endfacet
 facet normal 0 0 -1
  outer loop
   vertex 9.05 6.2 0
   vertex 9.65 6.2 0
   vertex 9.05 5 0
  endloop
 endfacet
 facet normal 0 0 -1
  outer loop
   vertex 9.05 5 0
   vertex 9.65 6.2 0
   vertex 9.65 5 0
  endloop
 endfacet
 facet normal 0 0 1
  outer loop
   vertex 9.65 6.2 1.9999
   vertex 9.05 6.2 1.9999
   vertex 9.05 5 1.9999
  endloop
 endfacet
 facet normal 0 0 1
  outer loop
   vertex 9.65 6.2 1.9999
   vertex 9.05 5 1.9999
   vertex 9.65 5 1.9999
  endloop
 endfacet
endsolid rack_B02-NET
solid rack_B03-HD
 facet normal -1 0 0
  outer loop
   vertex 9.66 5 0
   vertex 9.66 6.2 1.9999
   vertex 9.66 6.2 0
  endloop
 endfacet
 facet normal -1 0 0
  outer loop
   vertex 9.66 5 0
   vertex 9.66 5 1.9999
   vertex 9.66 6.2 1.9999
  endloop
 endfacet
 facet normal 1 0 0
  outer loop
   vertex 10.26 6.2 1.9999
   vertex 10.26 5 0
   vertex 10.26 6.2 0
  endloop
 endfacet
 facet normal 1 -0 0
  outer loop
   vertex 10.26 5 1.9999
   vertex 10.26 5 0
   vertex 10.26 6.2 1.9999
  endloop
 endfacet
 facet normal 0 -1 0
  outer loop
   vertex 10.26 5 0
   vertex 9.66 5 1.9999
   vertex 9.66 5 0
  endloop
 endfacet
 facet normal 0 -1 0
  outer loop
   vertex 10.26 5 0
   vertex 10.26 5 1.9999
   vertex 9.66 5 1.9999
  endloop
 endfacet
 facet normal 0 1 0
  outer loop
   vertex 9.66 6.2 1.9999
   vertex 10.26 6.2 0
   vertex 9.66 6.2 0
  endloop
 endfacet
 facet normal 0 1 0
  outer loop
   vertex 10.26 6.2 1.9999
   vertex 10.26 6.2 0
   vertex 9.66 6.2 1.9999
  endloop
 endfacet
 facet normal 0 0 -1
  outer loop
   vertex 9.66 6.2 0
   vertex 10.26 6.2 0
   vertex 9.66 5 0
  endloop
 endfacet
 facet normal 0 0 -1
  outer loop
   vertex 9.66 5 0
   vertex 10.26 6.2 0
   vertex 10.26 5 0
  endloop
 endfacet
 facet normal 0 0 1
  outer loop
   vertex 10.26 6.2 1.9999
   vertex 9.66 6.2 1.9999
   vertex 9.66 5 1.9999
  endloop
 endfacet
 facet normal 0 0 1
  outer loop
   vertex 10.26 6.2 1.9999
   vertex 9.66 5 1.9999
   vertex 10.26 5 1.9999
  endloop
 endfacet
endsolid rack_B03-HD
solid rack_B04-HD
 facet normal -1 0 0
  outer loop
   vertex 10.27 5 0
   vertex 10.27 6.2 1.9999
   vertex 10.27 6.2 0
  endloop
 endfacet
 facet normal -1 0 0
  outer loop
   vertex 10.27 5 0
   vertex 10.27 5 1.9999
   vertex 10.27 6.2 1.9999
  endloop
 endfacet
 facet normal 1 0 0
  outer loop
   vertex 10.87 6.2 1.9999
   vertex 10.87 5 0
   vertex 10.87 6.2 0
  endloop
 endfacet
 facet normal 1 -0 0
  outer loop
   vertex 10.87 5 1.9999
   vertex 10.87 5 0
   vertex 10.87 6.2 1.9999
  endloop
 endfacet
 facet normal 0 -1 0
  outer loop
   vertex 10.87 5 0
   vertex 10.27 5 1.9999
   vertex 10.27 5 0
  endloop
 endfacet
 facet normal 0 -1 0
  outer loop
   vertex 10.87 5 0
   vertex 10.87 5 1.9999
   vertex 10.27 5 1.9999
  endloop
 endfacet
 facet normal 0 1 0
  outer loop
   vertex 10.27 6.2 1.9999
   vertex 10.87 6.2 0
   vertex 10.27 6.2 0
  endloop
 endfacet
 facet normal 0 1 0
  outer loop
   vertex 10.87 6.2 1.9999
   vertex 10.87 6.2 0
   vertex 10.27 6.2 1.9999
  endloop
 endfacet
 facet normal 0 0 -1
  outer loop
   vertex 10.27 6.2 0
   vertex 10.87 6.2 0
   vertex 10.27 5 0
  endloop
 endfacet
 facet normal 0 0 -1
  outer loop
   vertex 10.27 5 0
   vertex 10.87 6.2 0
   vertex 10.87 5 0
  endloop
 endfacet
 facet normal 0 0 1
  outer loop
   vertex 10.87 6.2 1.9999
   vertex 10.27 6.2 1.9999
   vertex 10.27 5 1.9999
  endloop
 endfacet
 facet normal 0 0 1
  outer loop
   vertex 10.87 6.2 1.9999
   vertex 10.27 5 1.9999
   vertex 10.87 5 1.9999
  endloop
 endfacet
endsolid rack_B04-HD
solid rack_B05-HD
 facet normal -1 0 0
  outer loop
   vertex 10.88 5 0
   vertex 10.88 6.2 1.9999
   vertex 10.88 6.2 0
  endloop
 endfacet
 facet normal -1 0 0
  outer loop
   vertex 10.88 5 0
   vertex 10.88 5 1.9999
   vertex 10.88 6.2 1.9999
  endloop
 endfacet
 facet normal 1 0 0
  outer loop
   vertex 11.48 6.2 1.9999
   vertex 11.48 5 0
   vertex 11.48 6.2 0
  endloop
 endfacet
 facet normal 1 -0 0
  outer loop
   vertex 11.48 5 1.9999
   vertex 11.48 5 0
   vertex 11.48 6.2 1.9999
  endloop
 endfacet
 facet normal 0 -1 0
  outer loop
   vertex 11.48 5 0
   vertex 10.88 5 1.9999
   vertex 10.88 5 0
  endloop
 endfacet
 facet normal 0 -1 0
  outer loop
   vertex 11.48 5 0
   vertex 11.48 5 1.9999
   vertex 10.88 5 1.9999
  endloop
 endfacet
 facet normal 0 1 0
  outer loop
   vertex 10.88 6.2 1.9999
   vertex 11.48 6.2 0
   vertex 10.88 6.2 0
  endloop
 endfacet
 facet normal 0 1 0
  outer loop
   vertex 11.48 6.2 1.9999
   vertex 11.48 6.2 0
   vertex 10.88 6.2 1.9999
  endloop
 endfacet
 facet normal 0 0 -1
  outer loop
   vertex 10.88 6.2 0
   vertex 11.48 6.2 0
   vertex 10.88 5 0
  endloop
 endfacet
 facet normal 0 0 -1
  outer loop
   vertex 10.88 5 0
   vertex 11.48 6.2 0
   vertex 11.48 5 0
  endloop
 endfacet
 facet normal 0 0 1
  outer loop
   vertex 11.48 6.2 1.9999
   vertex 10.88 6.2 1.9999
   vertex 10.88 5 1.9999
  endloop
 endfacet
 facet normal 0 0 1
  outer loop
   vertex 11.48 6.2 1.9999
   vertex 10.88 5 1.9999
   vertex 11.48 5 1.9999
  endloop
 endfacet
endsolid rack_B05-HD
solid rack_B06-HD
 facet normal -1 0 0
  outer loop
   vertex 11.49 5 0
   vertex 11.49 6.2 1.9999
   vertex 11.49 6.2 0
  endloop
 endfacet
 facet normal -1 0 0
  outer loop
   vertex 11.49 5 0
   vertex 11.49 5 1.9999
   vertex 11.49 6.2 1.9999
  endloop
 endfacet
 facet normal 1 0 0
  outer loop
   vertex 12.09 6.2 1.9999
   vertex 12.09 5 0
   vertex 12.09 6.2 0
  endloop
 endfacet
 facet normal 1 -0 0
  outer loop
   vertex 12.09 5 1.9999
   vertex 12.09 5 0
   vertex 12.09 6.2 1.9999
  endloop
 endfacet
 facet normal 0 -1 0
  outer loop
   vertex 12.09 5 0
   vertex 11.49 5 1.9999
   vertex 11.49 5 0
  endloop
 endfacet
 facet normal 0 -1 0
  outer loop
   vertex 12.09 5 0
   vertex 12.09 5 1.9999
   vertex 11.49 5 1.9999
  endloop
 endfacet
 facet normal 0 1 0
  outer loop
   vertex 11.49 6.2 1.9999
   vertex 12.09 6.2 0
   vertex 11.49 6.2 0
  endloop
 endfacet
 facet normal 0 1 0
  outer loop
   vertex 12.09 6.2 1.9999
   vertex 12.09 6.2 0
   vertex 11.49 6.2 1.9999
  endloop
 endfacet
 facet normal 0 0 -1
  outer loop
   vertex 11.49 6.2 0
   vertex 12.09 6.2 0
   vertex 11.49 5 0
  endloop
 endfacet
 facet normal 0 0 -1
  outer loop
   vertex 11.49 5 0
   vertex 12.09 6.2 0
   vertex 12.09 5 0
  endloop
 endfacet
 facet normal 0 0 1
  outer loop
   vertex 12.09 6.2 1.9999
   vertex 11.49 6.2 1.9999
   vertex 11.49 5 1.9999
  endloop
 endfacet
 facet normal 0 0 1
  outer loop
   vertex 12.09 6.2 1.9999
   vertex 11.49 5 1.9999
   vertex 12.09 5 1.9999
  endloop
 endfacet
endsolid rack_B06-HD
solid rack_B07-HD
 facet normal -1 0 0
  outer loop
   vertex 12.1 5 0
   vertex 12.1 6.2 1.9999
   vertex 12.1 6.2 0
  endloop
 endfacet
 facet normal -1 0 0
  outer loop
   vertex 12.1 5 0
   vertex 12.1 5 1.9999
   vertex 12.1 6.2 1.9999
  endloop
 endfacet
 facet normal 1 0 0
  outer loop
   vertex 12.7 6.2 1.9999
   vertex 12.7 5 0
   vertex 12.7 6.2 0
  endloop
 endfacet
 facet normal 1 -0 0
  outer loop
   vertex 12.7 5 1.9999
   vertex 12.7 5 0
   vertex 12.7 6.2 1.9999
  endloop
 endfacet
 facet normal 0 -1 0
  outer loop
   vertex 12.7 5 0
   vertex 12.1 5 1.9999
   vertex 12.1 5 0
  endloop
 endfacet
 facet normal 0 -1 0
  outer loop
   vertex 12.7 5 0
   vertex 12.7 5 1.9999
   vertex 12.1 5 1.9999
  endloop
 endfacet
 facet normal 0 1 0
  outer loop
   vertex 12.1 6.2 1.9999
   vertex 12.7 6.2 0
   vertex 12.1 6.2 0
  endloop
 endfacet
 facet normal 0 1 0
  outer loop
   vertex 12.7 6.2 1.9999
   vertex 12.7 6.2 0
   vertex 12.1 6.2 1.9999
  endloop
 endfacet
 facet normal 0 0 -1
  outer loop
   vertex 12.1 6.2 0
   vertex 12.7 6.2 0
   vertex 12.1 5 0
  endloop
 endfacet
 facet normal 0 0 -1
  outer loop
   vertex 12.1 5 0
   vertex 12.7 6.2 0
   vertex 12.7 5 0
  endloop
 endfacet
 facet normal 0 0 1
  outer loop
   vertex 12.7 6.2 1.9999
   vertex 12.1 6.2 1.9999
   vertex 12.1 5 1.9999
  endloop
 endfacet
 facet normal 0 0 1
  outer loop
   vertex 12.7 6.2 1.9999
   vertex 12.1 5 1.9999
   vertex 12.7 5 1.9999
  endloop
 endfacet
endsolid rack_B07-HD
solid rack_B08-HD
 facet normal -1 0 0
  outer loop
   vertex 12.71 5 0
   vertex 12.71 6.2 1.9999
   vertex 12.71 6.2 0
  endloop
 endfacet
 facet normal -1 0 0
  outer loop
   vertex 12.71 5 0
   vertex 12.71 5 1.9999
   vertex 12.71 6.2 1.9999
  endloop
 endfacet
 facet normal 1 0 0
  outer loop
   vertex 13.31 6.2 1.9999
   vertex 13.31 5 0
   vertex 13.31 6.2 0
  endloop
 endfacet
 facet normal 1 -0 0
  outer loop
   vertex 13.31 5 1.9999
   vertex 13.31 5 0
   vertex 13.31 6.2 1.9999
  endloop
 endfacet
 facet normal 0 -1 0
  outer loop
   vertex 13.31 5 0
   vertex 12.71 5 1.9999
   vertex 12.71 5 0
  endloop
 endfacet
 facet normal 0 -1 0
  outer loop
   vertex 13.31 5 0
   vertex 13.31 5 1.9999
   vertex 12.71 5 1.9999
  endloop
 endfacet
 facet normal 0 1 0
  outer loop
   vertex 12.71 6.2 1.9999
   vertex 13.31 6.2 0
   vertex 12.71 6.2 0
  endloop
 endfacet
 facet normal 0 1 0
  outer loop
   vertex 13.31 6.2 1.9999
   vertex 13.31 6.2 0
   vertex 12.71 6.2 1.9999
  endloop
 endfacet
 facet normal 0 0 -1
  outer loop
   vertex 12.71 6.2 0
   vertex 13.31 6.2 0
   vertex 12.71 5 0
  endloop
 endfacet
 facet normal 0 0 -1
  outer loop
   vertex 12.71 5 0
   vertex 13.31 6.2 0
   vertex 13.31 5 0
  endloop
 endfacet
 facet normal 0 0 1
  outer loop
   vertex 13.31 6.2 1.9999
   vertex 12.71 6.2 1.9999
   vertex 12.71 5 1.9999
  endloop
 endfacet
 facet normal 0 0 1
  outer loop
   vertex 13.31 6.2 1.9999
   vertex 12.71 5 1.9999
   vertex 13.31 5 1.9999
  endloop
 endfacet
endsolid rack_B08-HD
solid rack_B09-HD
 facet normal -1 0 0
  outer loop
   vertex 13.32 5 0
   vertex 13.32 6.2 1.9999
   vertex 13.32 6.2 0
  endloop
 endfacet
 facet normal -1 0 0
  outer loop
   vertex 13.32 5 0
   vertex 13.32 5 1.9999
   vertex 13.32 6.2 1.9999
  endloop
 endfacet
 facet normal 1 0 0
  outer loop
   vertex 13.92 6.2 1.9999
   vertex 13.92 5 0
   vertex 13.92 6.2 0
  endloop
 endfacet
 facet normal 1 -0 0
  outer loop
   vertex 13.92 5 1.9999
   vertex 13.92 5 0
   vertex 13.92 6.2 1.9999
  endloop
 endfacet
 facet normal 0 -1 0
  outer loop
   vertex 13.92 5 0
   vertex 13.32 5 1.9999
   vertex 13.32 5 0
  endloop
 endfacet
 facet normal 0 -1 0
  outer loop
   vertex 13.92 5 0
   vertex 13.92 5 1.9999
   vertex 13.32 5 1.9999
  endloop
 endfacet
 facet normal 0 1 0
  outer loop
   vertex 13.32 6.2 1.9999
   vertex 13.92 6.2 0
   vertex 13.32 6.2 0
  endloop
 endfacet
 facet normal 0 1 0
  outer loop
   vertex 13.92 6.2 1.9999
   vertex 13.92 6.2 0
   vertex 13.32 6.2 1.9999
  endloop
 endfacet
 facet normal 0 0 -1
  outer loop
   vertex 13.32 6.2 0
   vertex 13.92 6.2 0
   vertex 13.32 5 0
  endloop
 endfacet
 facet normal 0 0 -1
  outer loop
   vertex 13.32 5 0
   vertex 13.92 6.2 0
   vertex 13.92 5 0
  endloop
 endfacet
 facet normal 0 0 1
  outer loop
   vertex 13.92 6.2 1.9999
   vertex 13.32 6.2 1.9999
   vertex 13.32 5 1.9999
  endloop
 endfacet
 facet normal 0 0 1
  outer loop
   vertex 13.92 6.2 1.9999
   vertex 13.32 5 1.9999
   vertex 13.92 5 1.9999
  endloop
 endfacet
endsolid rack_B09-HD
solid rack_B10-HD
 facet normal -1 0 0
  outer loop
   vertex 13.93 5 0
   vertex 13.93 6.2 1.9999
   vertex 13.93 6.2 0
  endloop
 endfacet
 facet normal -1 0 0
  outer loop
   vertex 13.93 5 0
   vertex 13.93 5 1.9999
   vertex 13.93 6.2 1.9999
  endloop
 endfacet
 facet normal 1 0 0
  outer loop
   vertex 14.53 6.2 1.9999
   vertex 14.53 5 0
   vertex 14.53 6.2 0
  endloop
 endfacet
 facet normal 1 -0 0
  outer loop
   vertex 14.53 5 1.9999
   vertex 14.53 5 0
   vertex 14.53 6.2 1.9999
  endloop
 endfacet
 facet normal 0 -1 0
  outer loop
   vertex 14.53 5 0
   vertex 13.93 5 1.9999
   vertex 13.93 5 0
  endloop
 endfacet
 facet normal 0 -1 0
  outer loop
   vertex 14.53 5 0
   vertex 14.53 5 1.9999
   vertex 13.93 5 1.9999
  endloop
 endfacet
 facet normal 0 1 0
  outer loop
   vertex 13.93 6.2 1.9999
   vertex 14.53 6.2 0
   vertex 13.93 6.2 0
  endloop
 endfacet
 facet normal 0 1 0
  outer loop
   vertex 14.53 6.2 1.9999
   vertex 14.53 6.2 0
   vertex 13.93 6.2 1.9999
  endloop
 endfacet
 facet normal 0 0 -1
  outer loop
   vertex 13.93 6.2 0
   vertex 14.53 6.2 0
   vertex 13.93 5 0
  endloop
 endfacet
 facet normal 0 0 -1
  outer loop
   vertex 13.93 5 0
   vertex 14.53 6.2 0
   vertex 14.53 5 0
  endloop
 endfacet
 facet normal 0 0 1
  outer loop
   vertex 14.53 6.2 1.9999
   vertex 13.93 6.2 1.9999
   vertex 13.93 5 1.9999
  endloop
 endfacet
 facet normal 0 0 1
  outer loop
   vertex 14.53 6.2 1.9999
   vertex 13.93 5 1.9999
   vertex 14.53 5 1.9999
  endloop
 endfacet
endsolid rack_B10-HD
solid rack_B11-NET
 facet normal -1 0 0
  outer loop
   vertex 14.54 5 0
   vertex 14.54 6.2 1.9999
   vertex 14.54 6.2 0
  endloop
 endfacet
 facet normal -1 0 0
  outer loop
   vertex 14.54 5 0
   vertex 14.54 5 1.9999
   vertex 14.54 6.2 1.9999
  endloop
 endfacet
 facet normal 1 0 0
  outer loop
   vertex 15.14 6.2 1.9999
   vertex 15.14 5 0
   vertex 15.14 6.2 0
  endloop
 endfacet
 facet normal 1 -0 0
  outer loop
   vertex 15.14 5 1.9999
   vertex 15.14 5 0
   vertex 15.14 6.2 1.9999
  endloop
 endfacet
 facet normal 0 -1 0
  outer loop
   vertex 15.14 5 0
   vertex 14.54 5 1.9999
   vertex 14.54 5 0
  endloop
 endfacet
 facet normal 0 -1 0
  outer loop
   vertex 15.14 5 0
   vertex 15.14 5 1.9999
   vertex 14.54 5 1.9999
  endloop
 endfacet
 facet normal 0 1 0
  outer loop
   vertex 14.54 6.2 1.9999
   vertex 15.14 6.2 0
   vertex 14.54 6.2 0
  endloop
 endfacet
 facet normal 0 1 0
  outer loop
   vertex 15.14 6.2 1.9999
   vertex 15.14 6.2 0
   vertex 14.54 6.2 1.9999
  endloop
 endfacet
 facet normal 0 0 -1
  outer loop
   vertex 14.54 6.2 0
   vertex 15.14 6.2 0
   vertex 14.54 5 0
  endloop
 endfacet
 facet normal 0 0 -1
  outer loop
   vertex 14.54 5 0
   vertex 15.14 6.2 0
   vertex 15.14 5 0
  endloop
 endfacet
 facet normal 0 0 1
  outer loop
   vertex 15.14 6.2 1.9999
   vertex 14.54 6.2 1.9999
   vertex 14.54 5 1.9999
  endloop
 endfacet
 facet normal 0 0 1
  outer loop
   vertex 15.14 6.2 1.9999
   vertex 14.54 5 1.9999
   vertex 15.14 5 1.9999
  endloop
 endfacet
endsolid rack_B11-NET
solid rack_B12-NET
 facet normal -1 0 0
  outer loop
   vertex 15.15 5 0
   vertex 15.15 6.2 1.9999
   vertex 15.15 6.2 0
  endloop
 endfacet
 facet normal -1 0 0
  outer loop
   vertex 15.15 5 0
   vertex 15.15 5 1.9999
   vertex 15.15 6.2 1.9999
  endloop
 endfacet
 facet normal 1 0 0
  outer loop
   vertex 15.75 6.2 1.9999
   vertex 15.75 5 0
   vertex 15.75 6.2 0
  endloop
 endfacet
 facet normal 1 -0 0
  outer loop
   vertex 15.75 5 1.9999
   vertex 15.75 5 0
   vertex 15.75 6.2 1.9999
  endloop
 endfacet
 facet normal 0 -1 0
  outer loop
   vertex 15.75 5 0
   vertex 15.15 5 1.9999
   vertex 15.15 5 0
  endloop
 endfacet
 facet normal 0 -1 0
  outer loop
   vertex 15.75 5 0
   vertex 15.75 5 1.9999
   vertex 15.15 5 1.9999
  endloop
 endfacet
 facet normal 0 1 0
  outer loop
   vertex 15.15 6.2 1.9999
   vertex 15.75 6.2 0
   vertex 15.15 6.2 0
  endloop
 endfacet
 facet normal 0 1 0
  outer loop
   vertex 15.75 6.2 1.9999
   vertex 15.75 6.2 0
   vertex 15.15 6.2 1.9999
  endloop
 endfacet
 facet normal 0 0 -1
  outer loop
   vertex 15.15 6.2 0
   vertex 15.75 6.2 0
   vertex 15.15 5 0
  endloop
 endfacet
 facet normal 0 0 -1
  outer loop
   vertex 15.15 5 0
   vertex 15.75 6.2 0
   vertex 15.75 5 0
  endloop
 endfacet
 facet normal 0 0 1
  outer loop
   vertex 15.75 6.2 1.9999
   vertex 15.15 6.2 1.9999
   vertex 15.15 5 1.9999
  endloop
 endfacet
 facet normal 0 0 1
  outer loop
   vertex 15.75 6.2 1.9999
   vertex 15.15 5 1.9999
   vertex 15.75 5 1.9999
  endloop
 endfacet
endsolid rack_B12-NET
